DBRep_DrawableShape

CASCADE Topology V1, (c) Matra-Datavision
Locations 2
1
              1               0               0             0.7 
              0               1               0             0.1 
              0               0               1            0.11 
1
              1               0               0             0.1 
              0               1               0             0.1 
              0               0               1            0.11 
Curve2ds 72
1 0 0 0 -1 
1 0 0 0 1 
1 0 0 0 1 
1 0 0.20000000000000001 1 0 
1 0 0 0 -1 
1 0.40000000000000002 0 0 1 
1 0 0 0 1 
1 0 0 1 0 
1 0 0 1 0 
1 0 0 1 0 
1 0.10000000000000001 0 0 -1 
1 0 0 0 1 
1 0 -0.40000000000000002 1 0 
1 0 0 1 0 
1 0 0 0 -1 
1 0 0 0 1 
1 0 0 1 0 
1 0 1.2 1 0 
1 0.10000000000000001 0 0 -1 
1 1.2 0 0 1 
1 0 -0.40000000000000002 1 0 
1 0 1.2 1 0 
1 0 0 0 -1 
1 1.2 0 0 1 
1 0 0 0 1 
1 0 0 1 0 
1 0.10000000000000001 0 0 1 
1 0 0 1 0 
1 0 0 0 1 
1 0 0.40000000000000002 1 0 
1 0.10000000000000001 0 0 1 
1 0 0.40000000000000002 1 0 
1 0 0 1 0 
1 0 0 1 0 
1 0.14999999999999999 0 0 -1 
1 0 0 0 1 
1 0 -0.20000000000000001 1 0 
1 0 0 1 0 
1 0 0 0 -1 
1 0 0 0 1 
1 0 0 1 0 
1 0 0.40000000000000002 1 0 
1 0.14999999999999999 0 0 -1 
1 0.40000000000000002 0 0 1 
1 0 -0.20000000000000001 1 0 
1 0 0.40000000000000002 1 0 
1 0 0 0 -1 
1 0.40000000000000002 0 0 1 
1 0 0 0 1 
1 0 0 1 0 
1 0.14999999999999999 0 0 1 
1 0 0 1 0 
1 0 0 0 1 
1 0 0.20000000000000001 1 0 
1 0.14999999999999999 0 0 1 
1 0 0.20000000000000001 1 0 
1 0 0 1 0 
1 0 0 1 0 
1 0.14999999999999999 0 0 -1 
1 0 0 0 1 
1 0 -0.20000000000000001 1 0 
1 0 0 1 0 
1 0 0 1 0 
1 0 0.40000000000000002 1 0 
1 0.14999999999999999 0 0 -1 
1 0.40000000000000002 0 0 1 
1 0 -0.20000000000000001 1 0 
1 0 0.40000000000000002 1 0 
1 0.14999999999999999 0 0 1 
1 0 0 1 0 
1 0.14999999999999999 0 0 1 
1 0 0.20000000000000001 1 0 
Curves 36
1 0 0 0 -0 1 0 
1 0 0.20000000000000001 0 1 0 -0 
1 0.40000000000000002 0 0 -0 1 0 
1 0 0 0 1 0 -0 
1 0 0 0 0 0 1 
1 0 0 0.10000000000000001 -0 1 0 
1 0 0.40000000000000002 0 0 0 1 
1 0 0 0 -0 1 0 
1 1.2 0 0 0 0 1 
1 1.2 0 0.10000000000000001 0 1 0 
1 1.2 0.40000000000000002 0 0 0 1 
1 1.2 0 0 -0 1 0 
1 0 0 0 1 0 -0 
1 0 0 0.10000000000000001 1 0 -0 
1 0 0.40000000000000002 0 1 0 -0 
1 0 0.40000000000000002 0.10000000000000001 1 0 -0 
1 0 0 0 0 0 1 
1 0 0 0.14999999999999999 -0 1 0 
1 0 0.20000000000000001 0 0 0 1 
1 0 0 0 -0 1 0 
1 0.40000000000000002 0 0 0 0 1 
1 0.40000000000000002 0 0.14999999999999999 0 1 0 
1 0.40000000000000002 0.20000000000000001 0 0 0 1 
1 0.40000000000000002 0 0 -0 1 0 
1 0 0 0 1 0 -0 
1 0 0 0.14999999999999999 1 0 -0 
1 0 0.20000000000000001 0 1 0 -0 
1 0 0.20000000000000001 0.14999999999999999 1 0 -0 
1 0 0 0 0 0 1 
1 0 0 0.14999999999999999 -0 1 0 
1 0 0.20000000000000001 0 0 0 1 
1 0.40000000000000002 0 0 0 0 1 
1 0.40000000000000002 0 0.14999999999999999 0 1 0 
1 0.40000000000000002 0.20000000000000001 0 0 0 1 
1 0 0 0.14999999999999999 1 0 -0 
1 0 0.20000000000000001 0.14999999999999999 1 0 -0 
Polygon3D 0
PolygonOnTriangulations 72
2 1 4 
p 0.02000002 1 0 0.2 
2 1 2 
p 0.04000002 1 0 0.2 
2 1 2 
p 0.04000002 1 0 0.4 
2 2 3 
p 0.048000024 1 0 0.4 
2 1 4 
p 0.02000002 1 0 0.2 
2 4 3 
p 0.04000002 1 0 0.2 
2 1 2 
p 0.04000002 1 0 0.4 
2 1 4 
p 0.048000024 1 0 0.4 
2 1 2 
p 0.04000002 1 0 0.1 
2 1 4 
p 0.072000096 1 0 0.1 
2 2 3 
p 0.04000002 1 0 0.4 
2 1 2 
p 0.12000002 1 0 0.4 
2 4 3 
p 0.04000002 1 0 0.1 
2 1 4 
p 0.072000096 1 0 0.1 
2 1 4 
p 0.04000002 1 0 0.4 
2 1 2 
p 0.12000002 1 0 0.4 
2 1 2 
p 0.04000002 1 0 0.1 
2 2 3 
p 0.072000096 1 0 0.1 
2 2 3 
p 0.04000002 1 0 0.4 
2 4 3 
p 0.12000002 1 0 0.4 
2 4 3 
p 0.04000002 1 0 0.1 
2 2 3 
p 0.072000096 1 0 0.1 
2 1 4 
p 0.04000002 1 0 0.4 
2 4 3 
p 0.12000002 1 0 0.4 
2 1 2 
p 0.12000002 1 0 1.2 
2 1 4 
p 0.144000024 1 0 1.2 
2 4 3 
p 0.12000002 1 0 1.2 
2 1 4 
p 0.144000024 1 0 1.2 
2 1 2 
p 0.12000002 1 0 1.2 
2 2 3 
p 0.144000024 1 0 1.2 
2 4 3 
p 0.12000002 1 0 1.2 
2 2 3 
p 0.144000024 1 0 1.2 
2 1 2 
p 0.02000002 1 0 0.15 
2 1 4 
p 0.04000002 1 0 0.15 
2 2 3 
p 0.02000002 1 0 0.2 
2 1 2 
p 0.04000002 1 0 0.2 
2 4 3 
p 0.02000002 1 0 0.15 
2 1 4 
p 0.04000002 1 0 0.15 
2 1 4 
p 0.02000002 1 0 0.2 
2 1 2 
p 0.04000002 1 0 0.2 
2 1 2 
p 0.02000002 1 0 0.15 
2 2 3 
p 0.04000002 1 0 0.15 
2 2 3 
p 0.02000002 1 0 0.2 
2 4 3 
p 0.04000002 1 0 0.2 
2 4 3 
p 0.02000002 1 0 0.15 
2 2 3 
p 0.04000002 1 0 0.15 
2 1 4 
p 0.02000002 1 0 0.2 
2 4 3 
p 0.04000002 1 0 0.2 
2 1 2 
p 0.04000002 1 0 0.4 
2 1 4 
p 0.048000024 1 0 0.4 
2 4 3 
p 0.04000002 1 0 0.4 
2 1 4 
p 0.048000024 1 0 0.4 
2 1 2 
p 0.04000002 1 0 0.4 
2 2 3 
p 0.048000024 1 0 0.4 
2 4 3 
p 0.04000002 1 0 0.4 
2 2 3 
p 0.048000024 1 0 0.4 
2 1 2 
p 0.02000002 1 0 0.15 
2 1 4 
p 0.04000002 1 0 0.15 
2 2 3 
p 0.02000002 1 0 0.2 
2 1 2 
p 0.04000002 1 0 0.2 
2 4 3 
p 0.02000002 1 0 0.15 
2 1 4 
p 0.04000002 1 0 0.15 
2 1 2 
p 0.02000002 1 0 0.15 
2 2 3 
p 0.04000002 1 0 0.15 
2 2 3 
p 0.02000002 1 0 0.2 
2 4 3 
p 0.04000002 1 0 0.2 
2 4 3 
p 0.02000002 1 0 0.15 
2 2 3 
p 0.04000002 1 0 0.15 
2 4 3 
p 0.04000002 1 0 0.4 
2 1 4 
p 0.048000024 1 0 0.4 
2 4 3 
p 0.04000002 1 0 0.4 
2 2 3 
p 0.048000024 1 0 0.4 
Surfaces 18
1 0 0 0 0 0 1 1 0 -0 -0 1 0 
1 0 0 0 1 0 -0 0 0 1 0 -1 0 
1 0 0.20000000000000001 0 -0 1 0 0 0 1 1 0 -0 
1 0.40000000000000002 0 0 1 0 -0 0 0 1 0 -1 0 
1 0 0 0 -0 1 0 0 0 1 1 0 -0 
1 0 0 0 1 0 -0 0 0 1 0 -1 0 
1 0 0 0 -0 1 0 0 0 1 1 0 -0 
1 0 0 0.10000000000000001 0 0 1 1 0 -0 -0 1 0 
1 0 0.40000000000000002 0 -0 1 0 0 0 1 1 0 -0 
1 0 0 0 0 0 1 1 0 -0 -0 1 0 
1 1.2 0 0 1 0 -0 0 0 1 0 -1 0 
1 0 0 0 1 0 -0 0 0 1 0 -1 0 
1 0 0 0 -0 1 0 0 0 1 1 0 -0 
1 0 0 0.14999999999999999 0 0 1 1 0 -0 -0 1 0 
1 0 0.20000000000000001 0 -0 1 0 0 0 1 1 0 -0 
1 0 0 0 0 0 1 1 0 -0 -0 1 0 
1 0.40000000000000002 0 0 1 0 -0 0 0 1 0 -1 0 
1 0 0 0.14999999999999999 0 0 1 1 0 -0 -0 1 0 
Triangulations 18
4 2 1 0
0 0 0 0 0.2 0 0.4 0.2 0 0.4 0 0 0 0 0 0.2 0.4 0.2 0.4 0 3 2 1 3 1 4 
4 2 1 0
0 0 0 0 0 0.15 0 0.2 0.15 0 0.2 0 0 1.10995197408204e-17 0.15 1.10995197408204e-17 0.15 -0.2 0 -0.2 2 4 3 2 1 4 
4 2 1 0
0 0.2 0 0.4 0.2 0 0.4 0.2 0.15 0 0.2 0.15 0 0 0 0.4 0.15 0.4 0.15 0 3 2 1 3 1 4 
4 2 1 0
0.4 0 0 0.4 0 0.15 0.4 0.2 0.15 0.4 0.2 0 0 1.10995197408204e-17 0.15 1.10995197408204e-17 0.15 -0.2 0 -0.2 2 4 3 2 1 4 
4 2 1 0
0 0 0 0.4 0 0 0.4 0 0.15 0 0 0.15 0 0 0 0.4 0.15 0.4 0.15 0 3 2 1 3 1 4 
4 2 1 0
0 0 0 0 0 0.1 0 0.4 0.1 0 0.4 0 0 2.21990394816407e-17 0.1 2.21990394816407e-17 0.1 -0.4 0 -0.4 1 4 3 2 1 3 
4 2 1 0
0 0 0 1.2 0 0 1.2 0 0.1 0 0 0.1 0 0 0 1.2 0.1 1.2 0.1 0 3 2 1 3 1 4 
4 2 1 0
0 0 0.1 0 0.4 0.1 1.2 0.4 0.1 1.2 0 0.1 0 0 0 0.4 1.2 0.4 1.2 0 3 2 1 3 1 4 
4 2 1 0
0 0.4 0 1.2 0.4 0 1.2 0.4 0.1 0 0.4 0.1 0 0 0 1.2 0.1 1.2 0.1 0 3 2 1 3 1 4 
4 2 1 0
0 0 0 0 0.4 0 1.2 0.4 0 1.2 0 0 0 0 0 0.4 1.2 0.4 1.2 0 3 2 1 3 1 4 
4 2 1 0
1.2 0 0 1.2 0 0.1 1.2 0.4 0.1 1.2 0.4 0 0 2.21990394816407e-17 0.1 2.21990394816407e-17 0.1 -0.4 0 -0.4 1 4 3 2 1 3 
4 2 1 0
0 0 0 0 0 0.15 0 0.2 0.15 0 0.2 0 0 1.10995197408204e-17 0.15 1.10995197408204e-17 0.15 -0.2 0 -0.2 2 4 3 2 1 4 
4 2 1 0
0 0 0 0.4 0 0 0.4 0 0.15 0 0 0.15 0 0 0 0.4 0.15 0.4 0.15 0 3 2 1 3 1 4 
4 2 1 0
0 0 0.15 0 0.2 0.15 0.4 0.2 0.15 0.4 0 0.15 0 0 0 0.2 0.4 0.2 0.4 0 3 2 1 3 1 4 
4 2 1 0
0 0.2 0 0.4 0.2 0 0.4 0.2 0.15 0 0.2 0.15 0 0 0 0.4 0.15 0.4 0.15 0 3 2 1 3 1 4 
4 2 1 0
0 0 0 0 0.2 0 0.4 0.2 0 0.4 0 0 0 0 0 0.2 0.4 0.2 0.4 0 3 2 1 3 1 4 
4 2 1 0
0.4 0 0 0.4 0 0.15 0.4 0.2 0.15 0.4 0.2 0 0 1.10995197408204e-17 0.15 1.10995197408204e-17 0.15 -0.2 0 -0.2 2 4 3 2 1 4 
4 2 1 0
0 0 0.15 0 0.2 0.15 0.4 0.2 0.15 0.4 0 0.15 0 0 0 0.2 0.4 0.2 0.4 0 3 2 1 3 1 4 

TShapes 103
Ve
1e-07
0 0.2 0
0 0

0101101
*
Ve
1e-07
0 0 0
0 0

0101101
*
Ed
 1e-07 1 1 0
1  1 0 0 0.2
2  1 2 0 0 0.2
2  2 1 0 0 0.2
6  1 2 0
6  2 1 0
0

0101000
-103 0 +102 0 *
Ve
1e-07
0.4 0.2 0
0 0

0101101
*
Ed
 1e-07 1 1 0
1  2 0 0 0.4
2  3 3 0 0 0.4
2  4 1 0 0 0.4
6  3 3 0
6  4 1 0
0

0101000
-100 0 +103 0 *
Ve
1e-07
0.4 0 0
0 0

0101101
*
Ed
 1e-07 1 1 0
1  3 0 0 0.2
2  5 4 0 0 0.2
2  6 1 0 0 0.2
6  5 4 0
6  6 1 0
0

0101000
-100 0 +98 0 *
Ed
 1e-07 1 1 0
1  4 0 0 0.4
2  7 5 0 0 0.4
2  8 1 0 0 0.4
6  7 5 0
6  8 1 0
0

0101000
-98 0 +102 0 *
Wi

0101000
-101 0 -99 0 +97 0 +96 0 *
Fa
0  1e-07 1 0
2  1
0111000
+95 0 *
Ve
1e-07
0 0 0.1
0 0

0101101
*
Ve
1e-07
0 0 0
0 0

0101101
*
Ed
 1e-07 1 1 0
1  5 0 0 0.1
2  9 6 0 0 0.1
2  10 7 0 0 0.1
6  9 6 0
6  10 7 0
0

0101000
-93 0 +92 0 *
Ve
1e-07
0 0.4 0.1
0 0

0101101
*
Ed
 1e-07 1 1 0
1  6 0 0 0.4
2  11 6 0 0 0.4
2  12 8 0 0 0.4
6  11 6 0
6  12 8 0
0

0101000
-90 0 +93 0 *
Ve
1e-07
0 0.4 0
0 0

0101101
*
Ed
 1e-07 1 1 0
1  7 0 0 0.1
2  13 6 0 0 0.1
2  14 9 0 0 0.1
6  13 6 0
6  14 9 0
0

0101000
-90 0 +88 0 *
Ed
 1e-07 1 1 0
1  8 0 0 0.4
2  15 6 0 0 0.4
2  16 10 0 0 0.4
6  15 6 0
6  16 10 0
0

0101000
-88 0 +92 0 *
Wi

0101000
-91 0 -89 0 +87 0 +86 0 *
Fa
0  1e-07 6 0
2  6
0111000
+85 0 *
Ve
1e-07
1.2 0 0.1
0 0

0101101
*
Ve
1e-07
1.2 0 0
0 0

0101101
*
Ed
 1e-07 1 1 0
1  9 0 0 0.1
2  17 11 0 0 0.1
2  18 7 0 0 0.1
6  17 11 0
6  18 7 0
0

0101000
-83 0 +82 0 *
Ve
1e-07
1.2 0.4 0.1
0 0

0101101
*
Ed
 1e-07 1 1 0
1  10 0 0 0.4
2  19 11 0 0 0.4
2  20 8 0 0 0.4
6  19 11 0
6  20 8 0
0

0101000
-80 0 +83 0 *
Ve
1e-07
1.2 0.4 0
0 0

0101101
*
Ed
 1e-07 1 1 0
1  11 0 0 0.1
2  21 11 0 0 0.1
2  22 9 0 0 0.1
6  21 11 0
6  22 9 0
0

0101000
-80 0 +78 0 *
Ed
 1e-07 1 1 0
1  12 0 0 0.4
2  23 11 0 0 0.4
2  24 10 0 0 0.4
6  23 11 0
6  24 10 0
0

0101000
-78 0 +82 0 *
Wi

0101000
-81 0 -79 0 +77 0 +76 0 *
Fa
0  1e-07 11 0
2  11
0111000
+75 0 *
Ed
 1e-07 1 1 0
1  13 0 0 1.2
2  25 7 0 0 1.2
2  26 10 0 0 1.2
6  25 7 0
6  26 10 0
0

0101000
-82 0 +92 0 *
Ed
 1e-07 1 1 0
1  14 0 0 1.2
2  27 7 0 0 1.2
2  28 8 0 0 1.2
6  27 7 0
6  28 8 0
0

0101000
-83 0 +93 0 *
Wi

0101000
-73 0 -81 0 +72 0 +91 0 *
Fa
0  1e-07 7 0
2  7
0111000
+71 0 *
Ed
 1e-07 1 1 0
1  15 0 0 1.2
2  29 9 0 0 1.2
2  30 10 0 0 1.2
6  29 9 0
6  30 10 0
0

0101000
-78 0 +88 0 *
Ed
 1e-07 1 1 0
1  16 0 0 1.2
2  31 9 0 0 1.2
2  32 8 0 0 1.2
6  31 9 0
6  32 8 0
0

0101000
-80 0 +90 0 *
Wi

0101000
-69 0 -77 0 +68 0 +87 0 *
Fa
0  1e-07 9 0
2  9
0111000
+67 0 *
Wi

0101000
-86 0 -69 0 +76 0 +73 0 *
Fa
0  1e-07 10 0
2  10
0111000
+65 0 *
Wi

0101000
-89 0 -68 0 +79 0 +72 0 *
Fa
0  1e-07 8 0
2  8
0111000
+63 0 *
Sh

0101100
-84 0 +74 0 -70 0 +66 0 -64 0 +62 0 *
So

0100000
+61 0 *
Ve
1e-07
0 0 0.15
0 0

0101101
*
Ve
1e-07
0 0 0
0 0

0101101
*
Ed
 1e-07 1 1 0
1  17 0 0 0.15
2  33 12 0 0 0.15
2  34 13 0 0 0.15
6  33 12 0
6  34 13 0
0

0101000
-59 0 +58 0 *
Ve
1e-07
0 0.2 0.15
0 0

0101101
*
Ed
 1e-07 1 1 0
1  18 0 0 0.2
2  35 12 0 0 0.2
2  36 14 0 0 0.2
6  35 12 0
6  36 14 0
0

0101000
-56 0 +59 0 *
Ve
1e-07
0 0.2 0
0 0

0101101
*
Ed
 1e-07 1 1 0
1  19 0 0 0.15
2  37 12 0 0 0.15
2  38 15 0 0 0.15
6  37 12 0
6  38 15 0
0

0101000
-56 0 +54 0 *
Ed
 1e-07 1 1 0
1  20 0 0 0.2
2  39 12 0 0 0.2
2  40 16 0 0 0.2
6  39 12 0
6  40 16 0
0

0101000
-54 0 +58 0 *
Wi

0101000
-57 0 -55 0 +53 0 +52 0 *
Fa
0  1e-07 12 0
2  12
0111000
+51 0 *
Ve
1e-07
0.4 0 0.15
0 0

0101101
*
Ve
1e-07
0.4 0 0
0 0

0101101
*
Ed
 1e-07 1 1 0
1  21 0 0 0.15
2  41 17 0 0 0.15
2  42 13 0 0 0.15
6  41 17 0
6  42 13 0
0

0101000
-49 0 +48 0 *
Ve
1e-07
0.4 0.2 0.15
0 0

0101101
*
Ed
 1e-07 1 1 0
1  22 0 0 0.2
2  43 17 0 0 0.2
2  44 14 0 0 0.2
6  43 17 0
6  44 14 0
0

0101000
-46 0 +49 0 *
Ve
1e-07
0.4 0.2 0
0 0

0101101
*
Ed
 1e-07 1 1 0
1  23 0 0 0.15
2  45 17 0 0 0.15
2  46 15 0 0 0.15
6  45 17 0
6  46 15 0
0

0101000
-46 0 +44 0 *
Ed
 1e-07 1 1 0
1  24 0 0 0.2
2  47 17 0 0 0.2
2  48 16 0 0 0.2
6  47 17 0
6  48 16 0
0

0101000
-44 0 +48 0 *
Wi

0101000
-47 0 -45 0 +43 0 +42 0 *
Fa
0  1e-07 17 0
2  17
0111000
+41 0 *
Ed
 1e-07 1 1 0
1  25 0 0 0.4
2  49 13 0 0 0.4
2  50 16 0 0 0.4
6  49 13 0
6  50 16 0
0

0101000
-48 0 +58 0 *
Ed
 1e-07 1 1 0
1  26 0 0 0.4
2  51 13 0 0 0.4
2  52 14 0 0 0.4
6  51 13 0
6  52 14 0
0

0101000
-49 0 +59 0 *
Wi

0101000
-39 0 -47 0 +38 0 +57 0 *
Fa
0  1e-07 13 0
2  13
0111000
+37 0 *
Ed
 1e-07 1 1 0
1  27 0 0 0.4
2  53 15 0 0 0.4
2  54 16 0 0 0.4
6  53 15 0
6  54 16 0
0

0101000
-44 0 +54 0 *
Ed
 1e-07 1 1 0
1  28 0 0 0.4
2  55 15 0 0 0.4
2  56 14 0 0 0.4
6  55 15 0
6  56 14 0
0

0101000
-46 0 +56 0 *
Wi

0101000
-35 0 -43 0 +34 0 +53 0 *
Fa
0  1e-07 15 0
2  15
0111000
+33 0 *
Wi

0101000
-52 0 -35 0 +42 0 +39 0 *
Fa
0  1e-07 16 0
2  16
0111000
+31 0 *
Wi

0101000
-55 0 -34 0 +45 0 +38 0 *
Fa
0  1e-07 14 0
2  14
0111000
+29 0 *
Sh

0101100
-50 0 +40 0 -36 0 +32 0 -30 0 +28 0 *
So

0100000
+27 0 *
Ve
1e-07
0 0 0.15
0 0

0101101
*
Ed
 1e-07 1 1 0
1  29 0 0 0.15
2  57 2 0 0 0.15
2  58 5 0 0 0.15
6  57 2 0
6  58 5 0
0

0101000
-25 0 +102 0 *
Ve
1e-07
0 0.2 0.15
0 0

0101101
*
Ed
 1e-07 1 1 0
1  30 0 0 0.2
2  59 2 0 0 0.2
2  60 18 0 0 0.2
6  59 2 0
6  60 18 0
0

0101000
-23 0 +25 0 *
Ed
 1e-07 1 1 0
1  31 0 0 0.15
2  61 2 0 0 0.15
2  62 3 0 0 0.15
6  61 2 0
6  62 3 0
0

0101000
-23 0 +103 0 *
Wi

0101000
-24 0 -22 0 +21 0 +101 0 *
Fa
0  1e-07 2 0
2  2
0111000
+20 0 *
Ve
1e-07
0.4 0 0.15
0 0

0101101
*
Ed
 1e-07 1 1 0
1  32 0 0 0.15
2  63 4 0 0 0.15
2  64 5 0 0 0.15
6  63 4 0
6  64 5 0
0

0101000
-18 0 +98 0 *
Ve
1e-07
0.4 0.2 0.15
0 0

0101101
*
Ed
 1e-07 1 1 0
1  33 0 0 0.2
2  65 4 0 0 0.2
2  66 18 0 0 0.2
6  65 4 0
6  66 18 0
0

0101000
-16 0 +18 0 *
Ed
 1e-07 1 1 0
1  34 0 0 0.15
2  67 4 0 0 0.15
2  68 3 0 0 0.15
6  67 4 0
6  68 3 0
0

0101000
-16 0 +100 0 *
Wi

0101000
-17 0 -15 0 +14 0 +97 0 *
Fa
0  1e-07 4 0
2  4
0111000
+13 0 *
Ed
 1e-07 1 1 0
1  35 0 0 0.4
2  69 5 0 0 0.4
2  70 18 0 0 0.4
6  69 5 0
6  70 18 0
0

0101000
-18 0 +25 0 *
Wi

0101000
-96 0 -17 0 +11 0 +24 0 *
Fa
0  1e-07 5 0
2  5
0111000
+10 0 *
Ed
 1e-07 1 1 0
1  36 0 0 0.4
2  71 3 0 0 0.4
2  72 18 0 0 0.4
6  71 3 0
6  72 18 0
0

0101000
-16 0 +23 0 *
Wi

0101000
-99 0 -14 0 +8 0 +21 0 *
Fa
0  1e-07 3 0
2  3
0111000
+7 0 *
Wi

0101000
-22 0 -8 0 +15 0 +11 0 *
Fa
0  1e-07 18 0
2  18
0111000
+5 0 *
Sh

0101100
-19 0 +12 0 -9 0 +6 0 -94 0 +4 0 *
So

0100000
+3 0 *
Co

1100000
-94 1 +60 0 +26 2 +2 1 *

+1 0 