DBRep_DrawableShape

CASCADE Topology V1, (c) Matra-Datavision
Locations 6
1
              1               0               0               0 
              0               1               0               0 
              0               0               1               3 
1
              1               0               0               0 
              0               1               0               0 
              0               0               1               3 
2  2 -1 0
2  1 -1 0
1
              1               0               0               0 
              0               1               0               0 
              0               0               1               3 
2  5 -1 0
Curve2ds 0
Curves 20
1 0 0 0 0 0 1 
1 0.5 1 0 0 0 1 
1 0 0 0 0.44721359549995793 0.89442719099991586 0 
1 -0.5 1 0 0 0 1 
1 0 0 0 -0.44721359549995798 0.89442719099991597 0 
1 -1 0 0 0 0 1 
1 -0.5 1 0 -0.44721359549995798 -0.89442719099991597 0 
1 -1 -0.40000000000000002 0 0 0 1 
1 -1 0 0 0 -1 0 
1 -0.5 0.59999999999999998 0 0 0 1 
1 -0.5 0.59999999999999998 0 -0.44721359549995798 -0.89442719099991597 0 
1 0 -0.40000000000000002 0 0 0 1 
1 0 -0.40000000000000002 0 -0.44721359549995798 0.89442719099991597 0 
1 0.5 0.59999999999999998 0 0 0 1 
1 0 -0.40000000000000002 0 0.44721359549995793 0.89442719099991586 0 
1 1 -0.40000000000000002 0 0 0 1 
1 0.5 0.59999999999999998 0 0.44721359549995793 -0.89442719099991586 0 
1 1 0 0 0 0 1 
1 1 0 0 0 -1 0 
1 0.5 1 0 0.44721359549995793 -0.89442719099991586 0 
Polygon3D 0
PolygonOnTriangulations 90
2 1 2 
p 0.0120000008 1 0 3 
2 1 2 
p 0.0120000008 1 0 3 
2 4 3 
p 0.0120000008 1 0 3 
2 1 2 
p 0.0120000008 1 0 3 
2 1 4 
p 0.0120000008 1 0 1.11803398874989 
2 2 3 
p 0.0120000008 1 0 1.11803398874989 
2 1 4 
p 0.0120000008 1 0 1.11803398874989 
2 2 3 
p 0.0120000008 1 0 1.11803398874989 
2 1 4 
p 0.0120000008 1 0 1.11803398874989 
2 1 2 
p 0.0120000008 1 0 1.11803398874989 
2 2 3 
p 0.0120000008 1 0 1.11803398874989 
2 4 3 
p 0.0120000008 1 0 3 
2 1 2 
p 0.0120000008 1 0 3 
2 1 4 
p 0.0120000008 1 0 1.11803398874989 
2 2 3 
p 0.0120000008 1 0 1.11803398874989 
2 1 4 
p 0.0120000008 1 0 1.11803398874989 
2 2 3 
p 0.0120000008 1 0 1.11803398874989 
2 1 4 
p 0.0120000008 1 0 1.11803398874989 
2 1 3 
p 0.0120000008 1 0 1.11803398874989 
2 2 3 
p 0.0120000008 1 0 1.11803398874989 
2 4 3 
p 0.0120000008 1 0 3 
2 1 2 
p 0.0120000008 1 0 3 
2 1 4 
p 0.0120000008 1 0 1.11803398874989 
2 2 3 
p 0.0120000008 1 0 1.11803398874989 
2 1 4 
p 0.0120000008 1 0 1.11803398874989 
2 2 3 
p 0.0120000008 1 0 1.11803398874989 
2 1 4 
p 0.0120000008 1 0 1.11803398874989 
2 3 4 
p 0.0120000008 1 0 1.11803398874989 
2 2 3 
p 0.0120000008 1 0 1.11803398874989 
2 4 3 
p 0.0120000008 1 0 3 
2 4 3 
p 0.0120000008 1 0 3 
2 1 4 
p 0.0120000008 1 0 0.4 
2 2 3 
p 0.0120000008 1 0 0.4 
2 1 4 
p 0.0120000008 1 0 0.4 
2 2 3 
p 0.0120000008 1 0 0.4 
2 1 4 
p 0.0120000008 1 0 0.4 
2 4 5 
p 0.0120000008 1 0 0.4 
2 2 3 
p 0.0120000008 1 0 0.4 
2 1 2 
p 0.0120000008 1 0 3 
2 4 3 
p 0.0120000008 1 0 3 
2 1 4 
p 0.0120000008 1 0 1.11803398874989 
2 2 3 
p 0.0120000008 1 0 1.11803398874989 
2 1 4 
p 0.0120000008 1 0 1.11803398874989 
2 2 3 
p 0.0120000008 1 0 1.11803398874989 
2 1 4 
p 0.0120000008 1 0 1.11803398874989 
2 6 5 
p 0.0120000008 1 0 1.11803398874989 
2 2 3 
p 0.0120000008 1 0 1.11803398874989 
2 1 2 
p 0.0120000008 1 0 3 
2 1 2 
p 0.0120000008 1 0 3 
2 1 4 
p 0.0120000008 1 0 1.11803398874989 
2 2 3 
p 0.0120000008 1 0 1.11803398874989 
2 1 4 
p 0.0120000008 1 0 1.11803398874989 
2 2 3 
p 0.0120000008 1 0 1.11803398874989 
2 1 4 
p 0.0120000008 1 0 1.11803398874989 
2 7 6 
p 0.0120000008 1 0 1.11803398874989 
2 2 3 
p 0.0120000008 1 0 1.11803398874989 
2 4 3 
p 0.0120000008 1 0 3 
2 1 2 
p 0.0120000008 1 0 3 
2 1 4 
p 0.0120000008 1 0 1.11803398874989 
2 2 3 
p 0.0120000008 1 0 1.11803398874989 
2 1 4 
p 0.0120000008 1 0 1.11803398874989 
2 2 3 
p 0.0120000008 1 0 1.11803398874989 
2 1 4 
p 0.0120000008 1 0 1.11803398874989 
2 7 8 
p 0.0120000008 1 0 1.11803398874989 
2 2 3 
p 0.0120000008 1 0 1.11803398874989 
2 4 3 
p 0.0120000008 1 0 3 
2 4 3 
p 0.0120000008 1 0 3 
2 1 4 
p 0.0120000008 1 0 1.11803398874989 
2 2 3 
p 0.0120000008 1 0 1.11803398874989 
2 1 4 
p 0.0120000008 1 0 1.11803398874989 
2 2 3 
p 0.0120000008 1 0 1.11803398874989 
2 1 4 
p 0.0120000008 1 0 1.11803398874989 
2 8 9 
p 0.0120000008 1 0 1.11803398874989 
2 2 3 
p 0.0120000008 1 0 1.11803398874989 
2 1 2 
p 0.0120000008 1 0 3 
2 4 3 
p 0.0120000008 1 0 3 
2 1 4 
p 0.0120000008 1 0 0.4 
2 2 3 
p 0.0120000008 1 0 0.4 
2 1 4 
p 0.0120000008 1 0 0.4 
2 2 3 
p 0.0120000008 1 0 0.4 
2 1 4 
p 0.0120000008 1 0 0.4 
2 10 9 
p 0.0120000008 1 0 0.4 
2 2 3 
p 0.0120000008 1 0 0.4 
2 1 4 
p 0.0120000008 1 0 1.11803398874989 
2 2 3 
p 0.0120000008 1 0 1.11803398874989 
2 1 4 
p 0.0120000008 1 0 1.11803398874989 
2 2 3 
p 0.0120000008 1 0 1.11803398874989 
2 1 4 
p 0.0120000008 1 0 1.11803398874989 
2 2 10 
p 0.0120000008 1 0 1.11803398874989 
2 2 3 
p 0.0120000008 1 0 1.11803398874989 
Surfaces 11
1 0 0 0 -0.89442719099991597 0.44721359549995798 0 0.44721359549995798 0.89442719099991597 0 0 0 -1 
1 0 0 0 -0.89442719099991597 -0.44721359549995798 0 -0.44721359549995798 0.89442719099991597 0 -0 0 -1 
1 -0.5 1 0 0.89442719099991597 -0.44721359549995798 0 -0.44721359549995798 -0.89442719099991597 0 0 -0 -1 
1 -1 0 0 1 0 -0 0 -1 0 0 -0 -1 
1 -0.5 0.59999999999999998 0 0.89442719099991597 -0.44721359549995798 0 -0.44721359549995798 -0.89442719099991597 0 0 -0 -1 
1 0 -0.40000000000000002 0 -0.89442719099991597 -0.44721359549995798 0 -0.44721359549995798 0.89442719099991597 0 -0 0 -1 
1 0 -0.40000000000000002 0 -0.89442719099991597 0.44721359549995798 0 0.44721359549995798 0.89442719099991597 0 0 0 -1 
1 0.5 0.59999999999999998 0 0.89442719099991597 0.44721359549995798 -0 0.44721359549995798 -0.89442719099991597 0 0 -0 -1 
1 1 0 0 1 0 -0 0 -1 0 0 -0 -1 
1 0.5 1 0 0.89442719099991597 0.44721359549995798 -0 0.44721359549995798 -0.89442719099991597 0 0 -0 -1 
1 0 0 0 -0 0 1 0.44721359549995798 0.89442719099991597 0 -0.89442719099991597 0.44721359549995798 -0 
Triangulations 31
4 2 1 1.24126707662364e-16
0 0 0 0 0 3 0.5 1 3 0.5 1 0 0 0 0 -3 1.11803398874989 -3 1.11803398874989 0 4 1 2 4 2 3 
4 2 1 1.24126707662364e-16
0 0 0 0 0 3 -0.5 1 3 -0.5 1 0 0 0 0 -3 1.11803398874989 -3 1.11803398874989 0 4 1 2 4 2 3 
4 2 1 1.11022302462516e-16
0.5 1 0 0.5 1 3 1 0 3 1 0 0 0 0 0 -3 1.11803398874989 -3 1.11803398874989 0 4 1 2 4 2 3 
4 2 1 1.24126707662364e-16
0 0 0 0 0 3 0.5 1 3 0.5 1 0 0 0 0 -3 1.11803398874989 -3 1.11803398874989 0 4 1 2 4 2 3 
4 2 1 1.24126707662364e-16
0 0 0 0 0 3 0.5 1 3 0.5 1 0 0 0 0 -3 1.11803398874989 -3 1.11803398874989 0 4 1 2 4 2 3 
10 8 1 2.48253415324727e-16
0 0 0 0.5 1 0 -0.5 1 0 -1 0 0 -1 -0.4 0 -0.5 0.6 0 0 -0.4 0 0.5 0.6 0 1 -0.4 0 1 0 0 0 0 1.11803398874989 0 0.670820393249937 0.894427190999916 -0.447213595499958 0.894427190999916 -0.804984471899924 0.715541752799933 0.313049516849971 0.715541752799933 -0.357770876399966 -0.178885438199983 0.760263112349929 -0.178885438199983 0.0894427190999916 -1.0733126291999 0.447213595499958 -0.894427190999916 2 8 10 3 4 6 2 1 8 1 3 6 5 6 4 6 7 1 7 8 1 8 9 10 
4 2 1 1.11022302462516e-16
-0.5 1 0 -0.5 1 3 -1 0 3 -1 0 0 0 0 0 -3 1.11803398874989 -3 1.11803398874989 0 4 1 2 4 2 3 
4 2 1 1.24126707662364e-16
0 0 0 0 0 3 -0.5 1 3 -0.5 1 0 0 0 0 -3 1.11803398874989 -3 1.11803398874989 0 4 1 2 4 2 3 
4 2 1 1.24126707662364e-16
0 0 0 0 0 3 -0.5 1 3 -0.5 1 0 0 0 0 -3 1.11803398874989 -3 1.11803398874989 0 4 1 2 4 2 3 
4 2 1 0
-1 0 0 -1 0 3 -1 -0.4 3 -1 -0.4 0 0 0 0 -3 0.4 -3 0.4 0 4 1 2 4 2 3 
4 2 1 1.11022302462516e-16
-0.5 1 0 -0.5 1 3 -1 0 3 -1 0 0 0 0 0 -3 1.11803398874989 -3 1.11803398874989 0 4 1 2 4 2 3 
4 2 1 1.11022302462516e-16
-0.5 1 0 -0.5 1 3 -1 0 3 -1 0 0 0 0 0 -3 1.11803398874989 -3 1.11803398874989 0 4 1 2 4 2 3 
4 2 1 1.24126707662364e-16
-0.5 0.6 0 -0.5 0.6 3 -1 -0.4 3 -1 -0.4 0 0 0 0 -3 1.11803398874989 -3 1.11803398874989 0 4 1 2 4 2 3 
4 2 1 0
-1 0 0 -1 0 3 -1 -0.4 3 -1 -0.4 0 0 0 0 -3 0.4 -3 0.4 0 4 1 2 4 2 3 
4 2 1 0
-1 0 0 -1 0 3 -1 -0.4 3 -1 -0.4 0 0 0 0 -3 0.4 -3 0.4 0 4 1 2 4 2 3 
4 2 1 1.24126707662364e-16
0 -0.4 0 0 -0.4 3 -0.5 0.6 3 -0.5 0.6 0 0 0 0 -3 1.11803398874989 -3 1.11803398874989 0 4 1 2 4 2 3 
4 2 1 1.24126707662364e-16
-0.5 0.6 0 -0.5 0.6 3 -1 -0.4 3 -1 -0.4 0 0 0 0 -3 1.11803398874989 -3 1.11803398874989 0 4 1 2 4 2 3 
4 2 1 1.24126707662364e-16
-0.5 0.6 0 -0.5 0.6 3 -1 -0.4 3 -1 -0.4 0 0 0 0 -3 1.11803398874989 -3 1.11803398874989 0 4 1 2 4 2 3 
4 2 1 1.24126707662364e-16
0 -0.4 0 0 -0.4 3 0.5 0.6 3 0.5 0.6 0 0 0 0 -3 1.11803398874989 -3 1.11803398874989 0 4 1 2 4 2 3 
4 2 1 1.24126707662364e-16
0 -0.4 0 0 -0.4 3 -0.5 0.6 3 -0.5 0.6 0 0 0 0 -3 1.11803398874989 -3 1.11803398874989 0 4 1 2 4 2 3 
4 2 1 1.24126707662364e-16
0 -0.4 0 0 -0.4 3 -0.5 0.6 3 -0.5 0.6 0 0 0 0 -3 1.11803398874989 -3 1.11803398874989 0 4 1 2 4 2 3 
4 2 1 1.24126707662364e-16
0.5 0.6 0 0.5 0.6 3 1 -0.4 3 1 -0.4 0 0 0 0 -3 1.11803398874989 -3 1.11803398874989 0 4 1 2 4 2 3 
4 2 1 1.24126707662364e-16
0 -0.4 0 0 -0.4 3 0.5 0.6 3 0.5 0.6 0 0 0 0 -3 1.11803398874989 -3 1.11803398874989 0 4 1 2 4 2 3 
4 2 1 1.24126707662364e-16
0 -0.4 0 0 -0.4 3 0.5 0.6 3 0.5 0.6 0 0 0 0 -3 1.11803398874989 -3 1.11803398874989 0 4 1 2 4 2 3 
4 2 1 0
1 0 0 1 0 3 1 -0.4 3 1 -0.4 0 0 0 0 -3 0.4 -3 0.4 0 4 1 2 4 2 3 
4 2 1 1.24126707662364e-16
0.5 0.6 0 0.5 0.6 3 1 -0.4 3 1 -0.4 0 0 0 0 -3 1.11803398874989 -3 1.11803398874989 0 4 1 2 4 2 3 
4 2 1 1.24126707662364e-16
0.5 0.6 0 0.5 0.6 3 1 -0.4 3 1 -0.4 0 0 0 0 -3 1.11803398874989 -3 1.11803398874989 0 4 1 2 4 2 3 
4 2 1 0
1 0 0 1 0 3 1 -0.4 3 1 -0.4 0 0 0 0 -3 0.4 -3 0.4 0 4 1 2 4 2 3 
4 2 1 0
1 0 0 1 0 3 1 -0.4 3 1 -0.4 0 0 0 0 -3 0.4 -3 0.4 0 4 1 2 4 2 3 
4 2 1 1.11022302462516e-16
0.5 1 0 0.5 1 3 1 0 3 1 0 0 0 0 0 -3 1.11803398874989 -3 1.11803398874989 0 4 1 2 4 2 3 
4 2 1 1.11022302462516e-16
0.5 1 0 0.5 1 3 1 0 3 1 0 0 0 0 0 -3 1.11803398874989 -3 1.11803398874989 0 4 1 2 4 2 3 

TShapes 55
Ve
1e-07
0 0 0
0 0

0101101
*
Ed
 1e-07 1 1 0
1  1 0 0 3
6  1 1 0
6  2 2 0
0

0101000
+55 0 -55 1 *
Ve
1e-07
0.5 1 0
0 0

0101101
*
Ed
 1e-07 1 1 0
1  2 0 0 3
6  3 1 0
6  4 3 0
0

0101000
+53 0 -53 1 *
Ed
 1e-07 1 1 0
1  3 0 0 1.11803398874989
6  5 4 0
6  6 4 3
6  7 1 0
6  8 1 4
6  9 5 0
6  10 6 0
6  11 5 6
0

0101000
+55 0 -53 0 *
Wi

0101100
+54 0 -52 0 -51 0 +51 1 *
Fa
0  1e-07 1 0
2  1
0101000
+50 0 *
Ve
1e-07
-0.5 1 0
0 0

0101101
*
Ed
 1e-07 1 1 0
1  4 0 0 3
6  12 2 0
6  13 7 0
0

0101000
+48 0 -48 1 *
Ed
 1e-07 1 1 0
1  5 0 0 1.11803398874989
6  14 8 0
6  15 8 3
6  16 2 0
6  17 2 4
6  18 9 0
6  19 6 0
6  20 9 6
0

0101000
+55 0 -48 0 *
Wi

0101100
+54 0 -47 0 -46 0 +46 1 *
Fa
0  1e-07 2 0
2  2
0101000
+45 0 *
Ve
1e-07
-1 0 0
0 0

0101101
*
Ed
 1e-07 1 1 0
1  6 0 0 3
6  21 7 0
6  22 10 0
0

0101000
+43 0 -43 1 *
Ed
 1e-07 1 1 0
1  7 0 0 1.11803398874989
6  23 11 0
6  24 11 3
6  25 7 0
6  26 7 4
6  27 12 0
6  28 6 0
6  29 12 6
0

0101000
+48 0 -43 0 *
Wi

0101100
+47 0 -42 0 -41 0 +41 1 *
Fa
0  1e-07 3 0
2  7
0101000
+40 0 *
Ve
1e-07
-1 -0.4 0
0 0

0101101
*
Ed
 1e-07 1 1 0
1  8 0 0 3
6  30 10 0
6  31 13 0
0

0101000
+38 0 -38 1 *
Ed
 1e-07 1 1 0
1  9 0 0 0.4
6  32 14 0
6  33 14 3
6  34 10 0
6  35 10 4
6  36 15 0
6  37 6 0
6  38 15 6
0

0101000
+43 0 -38 0 *
Wi

0101100
+42 0 -37 0 -36 0 +36 1 *
Fa
0  1e-07 4 0
2  10
0101000
+35 0 *
Ve
1e-07
-0.5 0.6 0
0 0

0101101
*
Ed
 1e-07 1 1 0
1  10 0 0 3
6  39 13 0
6  40 16 0
0

0101000
+33 0 -33 1 *
Ed
 1e-07 1 1 0
1  11 0 0 1.11803398874989
6  41 17 0
6  42 17 3
6  43 13 0
6  44 13 4
6  45 18 0
6  46 6 0
6  47 18 6
0

0101000
+33 0 -38 0 *
Wi

0101100
+32 0 -37 0 -31 0 +31 1 *
Fa
0  1e-07 5 0
2  13
0101000
+30 0 *
Ve
1e-07
0 -0.4 0
0 0

0101101
*
Ed
 1e-07 1 1 0
1  12 0 0 3
6  48 16 0
6  49 19 0
0

0101000
+28 0 -28 1 *
Ed
 1e-07 1 1 0
1  13 0 0 1.11803398874989
6  50 20 0
6  51 20 3
6  52 16 0
6  53 16 4
6  54 21 0
6  55 6 0
6  56 21 6
0

0101000
+28 0 -33 0 *
Wi

0101100
+27 0 -32 0 -26 0 +26 1 *
Fa
0  1e-07 6 0
2  16
0101000
+25 0 *
Ve
1e-07
0.5 0.6 0
0 0

0101101
*
Ed
 1e-07 1 1 0
1  14 0 0 3
6  57 19 0
6  58 22 0
0

0101000
+23 0 -23 1 *
Ed
 1e-07 1 1 0
1  15 0 0 1.11803398874989
6  59 23 0
6  60 23 3
6  61 19 0
6  62 19 4
6  63 24 0
6  64 6 0
6  65 24 6
0

0101000
+28 0 -23 0 *
Wi

0101100
+27 0 -22 0 -21 0 +21 1 *
Fa
0  1e-07 7 0
2  19
0101000
+20 0 *
Ve
1e-07
1 -0.4 0
0 0

0101101
*
Ed
 1e-07 1 1 0
1  16 0 0 3
6  66 22 0
6  67 25 0
0

0101000
+18 0 -18 1 *
Ed
 1e-07 1 1 0
1  17 0 0 1.11803398874989
6  68 26 0
6  69 26 3
6  70 22 0
6  71 22 4
6  72 27 0
6  73 6 0
6  74 27 6
0

0101000
+23 0 -18 0 *
Wi

0101100
+22 0 -17 0 -16 0 +16 1 *
Fa
0  1e-07 8 0
2  22
0101000
+15 0 *
Ve
1e-07
1 0 0
0 0

0101101
*
Ed
 1e-07 1 1 0
1  18 0 0 3
6  75 25 0
6  76 3 0
0

0101000
+13 0 -13 1 *
Ed
 1e-07 1 1 0
1  19 0 0 0.4
6  77 28 0
6  78 28 3
6  79 25 0
6  80 25 4
6  81 29 0
6  82 6 0
6  83 29 6
0

0101000
+13 0 -18 0 *
Wi

0101100
+12 0 -17 0 -11 0 +11 1 *
Fa
0  1e-07 9 0
2  25
0101000
+10 0 *
Ed
 1e-07 1 1 0
1  20 0 0 1.11803398874989
6  84 30 0
6  85 30 3
6  86 3 0
6  87 3 4
6  88 31 0
6  89 6 0
6  90 31 6
0

0101000
+53 0 -13 0 *
Wi

0101100
+52 0 -12 0 -8 0 +8 1 *
Fa
0  1e-07 10 0
2  3
0101000
+7 0 *
Wi

0101100
-51 0 +46 0 +41 0 +36 0 -31 0 -26 0 +21 0 +16 0 -11 0 -8 0 
*
Fa
0  0 11 0
2  6
0101000
+5 0 *
Sh

0101100
-49 0 +44 0 +39 0 +34 0 -29 0 -24 0 +19 0 +14 0 -9 0 -6 0 
+4 0 -4 1 *
So

0100000
-3 0 *
Co

1100000
+2 0 *

+1 0 