DBRep_DrawableShape

CASCADE Topology V1, (c) Matra-Datavision
Locations 17
1
              1               0               0               0 
              0               1               0               0 
              0               0               1              -1 
1
              1               0               0               0 
              0               1               0               0 
              0               0               1              -1 
2  2 -1 0
1
              1               0               0               0 
              0               1               0               0 
              0               0               1              -1 
2  4 -1 0
2  1 -1 0
1
              1               0               0               0 
              0               1               0               1 
              0               0               1               0 
1
              1               0               0               0 
              0               1               0               0 
              0               0               1              -1 
2  8 -1 0
2  7 -1 0
1
              1               0               0               0 
              0               1               0               0 
              0               0               1              -1 
2  11 -1 0
1
              1               0               0               0 
              0               1               0               0 
              0               0               1              -1 
2  13 -1 0
2  1 1 7 -1 8 -1 0
2  7 -1 8 -1 0
2  8 1 7 1 0
Curve2ds 31
1 0 0 0 -1 
1 -1.5 0 0 1 
1 0 -1.5 1 0 
1 0 1.5 1 0 
1 1.5 0 1 0 
1 1.5 -1 1 0 
8 -1 0
1 1.3999999999999999 0 0 1 
8 -1 0
1 2 0 0 1 
1 -0.10000000000000001 0 0 1 
1 1.5 0 1 0 
1 1.5 -1 1 0 
1 -0.10000000000000001 1 0 1 
1 0 -1.5 1 0 
1 0.10000000000000001 0 1 0 
1 0.10000000000000001 -1 1 0 
1 0 -0.5 1 0 
1 0 -0.5 1 0 
1 0.10000000000000001 0 0 1 
1 1.5 0 1 0 
1 1.5 -1 1 0 
1 0.10000000000000001 1 0 1 
1 1.5 0 0 1 
1 -0.10000000000000001 1 0 1 
1 0.10000000000000001 1 0 1 
1 3 0 0 -1 
1 0 0 0 -1 
1 0 0 0 -1 
1 0 0 0 -1 
1 0.20000000000000001 0 0 -1 
8 -1 0
1 1.6000000000000001 0 0 1 
8 -1 0
1 2 0 0 1 
Curves 15
1 -1.5 -1.5 0 0 0 -1 
1 -1.5 1.5 0 0 0 -1 
1 -1.5 0 0 -0 1 0 
1 1.5 -1.5 0 0 0 -1 
1 0 -1.5 0 1 0 -0 
1 0 1.5 0 1 0 -0 
1 -0.10000000000000005 1.5 0 -0 0 1 
1 -0.10000000000000001 0 0 -0 1 0 
1 0 -1.5 0 1 0 -0 
1 0.10000000000000001 0 0 -0 1 0 
1 1.5 0 0 -0 1 0 
1 1.5 1.5 0 0 0 -1 
1 -0.10000000000000001 -1.5 0 0 0 -1 
1 0.10000000000000001 -1.5 0 0 0 -1 
1 0.10000000000000005 1.5 0 -0 0 1 
Polygon3D 0
PolygonOnTriangulations 72
2 1 2 
p 0.0120000012 1 0 1 
2 1 2 
p 0.0120000012 1 0 1 
2 1 2 
p 0.0120000008 1 0 1 
2 4 3 
p 0.0120000012 1 0 1 
2 1 3 
p 0.0120000012 1 0 1 
2 1 4 
p 0.0120000008 1 -1.5 1.5 
2 2 3 
p 0.0120000008 1 -1.5 1.5 
2 1 4 
p 0.0120000008 1 -1.5 1.5 
2 1 2 
p 0.0120000008 1 -1.5 1.5 
2 2 3 
p 0.0120000008 1 -1.5 1.5 
2 1 4 
p 0.0120000012 1 -1.5 1.5 
2 1 2 
p 0.0120000012 1 -1.5 1.5 
2 2 3 
p 0.0120000012 1 -1.5 1.5 
2 1 2 
p 0.0120000012 1 -1.5 1.5 
2 4 3 
p 0.0120000012 1 0 1 
2 1 2 
p 0.0120000012 1 0 1 
2 1 4 
p 0.0120000008 1 -1.5 1.5 
2 2 3 
p 0.0120000008 1 -1.5 1.5 
2 1 4 
p 0.0120000008 1 -1.5 1.5 
2 1 3 
p 0.0120000008 1 -1.5 1.5 
2 2 3 
p 0.0120000008 1 -1.5 1.5 
2 1 4 
p 0.0120000012 1 -1.5 1.5 
2 1 3 
p 0.0120000012 1 -1.5 1.5 
2 2 3 
p 0.0120000012 1 -1.5 1.5 
2 1 3 
p 0.0120000012 1 -1.5 1.5 
2 1 2 
p 0.0120000012 1 -1.5 -0.1 
2 2 8 
p 0.0120000012 1 -1.5 -0.1 
2 4 2 
p 0.0120000012 1 -1 0 
2 4 2 
p 0.0120000012 1 -1 0 
2 3 4 
p 0.0120000012 1 -1.5 -0.1 
2 2 8 
p 0.0120000012 1 -1.5 -0.1 
2 7 8 
p 0.0120000012 1 -1.5 0.5 
2 1 2 
p 0.0120000012 1 -1.5 0.5 
2 1 4 
p 0.0120000008 1 -0.1 0.1 
2 2 3 
p 0.0120000008 1 -0.1 0.1 
2 1 4 
p 0.0120000008 1 -0.1 0.1 
2 2 3 
p 0.0120000008 1 -0.1 0.1 
2 1 3 
p 0.0120000008 1 -0.1 0.1 
2 7 6 
p 0.0120000012 1 -0.1 0.1 
2 1 4 
p 0.0120000012 1 -0.1 0.1 
2 7 6 
p 0.0120000012 1 -0.1 0.1 
2 2 3 
p 0.0120000012 1 -0.1 0.1 
2 6 5 
p 0.0120000012 1 -1.5 0.5 
2 1 2 
p 0.0120000012 1 -1.5 0.5 
2 5 4 
p 0.0120000012 1 0.1 1.5 
2 1 2 
p 0.0120000012 1 0.1 1.5 
2 1 4 
p 0.0120000008 1 -1.5 1.5 
2 2 3 
p 0.0120000008 1 -1.5 1.5 
2 1 4 
p 0.0120000008 1 -1.5 1.5 
2 3 4 
p 0.0120000008 1 -1.5 1.5 
2 2 3 
p 0.0120000008 1 -1.5 1.5 
2 3 4 
p 0.0120000012 1 -1.5 1.5 
2 1 4 
p 0.0120000012 1 -1.5 1.5 
2 3 4 
p 0.0120000012 1 -1.5 1.5 
2 2 3 
p 0.0120000012 1 -1.5 1.5 
2 7 8 
p 0.0120000012 1 -1.5 0.5 
2 3 4 
p 0.0120000012 1 -1.5 0.5 
2 6 5 
p 0.0120000012 1 -1.5 0.5 
2 3 4 
p 0.0120000012 1 -1.5 0.5 
2 5 4 
p 0.0120000012 1 0.1 1.5 
2 3 4 
p 0.0120000012 1 0.1 1.5 
2 4 3 
p 0.0120000008 1 0 1 
2 4 3 
p 0.0120000012 1 0 1 
2 2 4 
p 0.0120000012 1 0 1 
2 1 2 
p 0.0120000008 1 0 1 
2 1 3 
p 0.0120000012 1 0 1 
2 1 2 
p 0.0120000012 1 0 1 
2 1 2 
p 0.0120000008 1 0 1 
2 4 3 
p 0.0120000012 1 0 1 
2 1 3 
p 0.0120000012 1 0 1 
2 4 2 
p 0.0120000012 1 -1 0 
2 3 1 
p 0.0120000012 1 -1 0 
Surfaces 9
1 -1.5 -1.5 0 1 0 0 -0 1 0 0 -0 1 
1 -1.5 1.5 0 0 -1 0 1 0 0 -0 0 1 
1 0 0 0 0 0 1 1 0 -0 -0 1 0 
1 -1.5 -1.5 0 0 -1 0 1 0 0 -0 0 1 
1 -0.10000000000000001 -1.5 0 1 0 0 -0 1 0 0 -0 1 
1 0 0 0 0 0 1 1 0 -0 -0 1 0 
1 -0.10000000000000001 -1.5 0 0 -1 0 1 0 0 -0 0 1 
1 0.10000000000000001 -1.5 0 1 0 0 -0 1 0 0 -0 1 
1 1.5 -1.5 0 1 0 0 -0 1 0 0 -0 1 
Triangulations 23
4 2 1 0
-1.5 -1.5 0 -1.5 -1.5 -1 -1.5 1.5 -1 -1.5 1.5 0 0 0 0 -1 3 -1 3 0 4 1 2 4 2 3 
4 2 1 0
-1.5 -1.5 0 -1.5 -1.5 -1 1.5 -1.5 -1 1.5 -1.5 0 0 0 0 -1 3 -1 3 0 4 1 2 4 2 3 
4 2 1 0
-1.5 1.5 0 -1.5 1.5 -1 1.5 1.5 -1 1.5 1.5 0 0 0 0 -1 3 -1 3 0 4 1 2 4 2 3 
4 2 1 0
-1.5 1.5 0 -0.1 1.5 0 -1.5 1.5 -1 -0.1 1.5 -1 0 0 1.4 0 0 -1 1.4 -1 2 1 3 2 3 4 
4 2 1 0
-1.5 -1.5 0 -1.5 -1.5 -1 -1.5 1.5 -1 -1.5 1.5 0 0 0 0 -1 3 -1 3 0 4 1 2 4 2 3 
4 2 1 0
-1.5 -1.5 0 -1.5 -1.5 -1 -1.5 1.5 -1 -1.5 1.5 0 0 0 0 -1 3 -1 3 0 4 1 2 4 2 3 
4 2 1 0
-1.5 -1.5 0 -1.5 1.5 0 1.5 -1.5 0 1.5 1.5 0 -1.5 -1.5 -1.5 1.5 1.5 -1.5 1.5 1.5 4 2 1 4 1 3 
8 6 1 0
-1.5 -1.5 0 -1.5 1.5 0 1.5 -1.5 0 1.5 1.5 0 0.1 1.5 0 0.1 -0.5 0 -0.1 -0.5 0 -0.1 1.5 0 -1.5 -1.5 -1.5 1.5 1.5 -1.5 1.5 1.5 0.1 1.5 0.1 -0.5 -0.1 -0.5 -0.1 1.5 2 1 7 3 6 7 3 7 1 8 2 7 4 5 6 4 6 3 
8 6 1 0
-1.5 -1.5 -1 -1.5 1.5 -1 1.5 -1.5 -1 1.5 1.5 -1 0.1 1.5 -1 0.1 -0.5 -1 -0.1 -0.5 -1 -0.1 1.5 -1 -1.5 -1.5 -1.5 1.5 1.5 -1.5 1.5 1.5 0.1 1.5 0.1 -0.5 -0.1 -0.5 -0.1 1.5 2 1 7 3 6 7 3 7 1 8 2 7 4 5 6 4 6 3 
4 2 1 0
1.5 -1.5 0 1.5 -1.5 -1 1.5 1.5 -1 1.5 1.5 0 0 0 0 -1 3 -1 3 0 4 1 2 4 2 3 
4 2 1 0
-1.5 -1.5 0 -1.5 -1.5 -1 1.5 -1.5 -1 1.5 -1.5 0 0 0 0 -1 3 -1 3 0 4 1 2 4 2 3 
4 2 1 0
-1.5 -1.5 0 -1.5 -1.5 -1 1.5 -1.5 -1 1.5 -1.5 0 0 0 0 -1 3 -1 3 0 4 1 2 4 2 3 
4 2 1 1.11886302282795e-16
-0.1 -0.5 0 -0.1 1.5 0 -0.1 -0.5 -1 -0.1 1.5 -1 0 0 2 0 0 -1 2 -1 2 1 3 2 3 4 
4 2 1 6.93889390390723e-18
-0.1 -1.5 0 -0.1 -1.5 -1 0.1 -1.5 -1 0.1 -1.5 0 0 0 0 -1 0.2 -1 0.2 0 4 1 2 4 2 3 
4 2 1 6.93889390390723e-18
-0.1 -1.5 0 -0.1 -1.5 -1 0.1 -1.5 -1 0.1 -1.5 0 0 0 0 -1 0.2 -1 0.2 0 4 1 2 4 2 3 
4 2 1 0
-0.1 -1.5 0 -0.1 1.5 0 0.1 -1.5 0 0.1 1.5 0 -0.1 -1.5 -0.1 1.5 0.1 -1.5 0.1 1.5 4 2 1 4 1 3 
4 2 1 6.93889390390723e-18
-0.1 -1.5 0 -0.1 -1.5 -1 0.1 -1.5 -1 0.1 -1.5 0 0 0 0 -1 0.2 -1 0.2 0 4 1 2 4 2 3 
4 2 1 1.11886302282795e-16
0.1 -0.5 0 0.1 1.5 0 0.1 -0.5 -1 0.1 1.5 -1 0 0 2 0 0 -1 2 -1 2 1 3 2 3 4 
4 2 1 3.33066907387547e-16
0.1 1.5 0 1.5 1.5 0 0.1 1.5 -1 1.5 1.5 -1 1.6 0 3 0 1.6 -1 3 -1 2 1 3 2 3 4 
4 2 1 0
1.5 -1.5 0 1.5 -1.5 -1 1.5 1.5 -1 1.5 1.5 0 0 0 0 -1 3 -1 3 0 4 1 2 4 2 3 
4 2 1 0
1.5 -1.5 0 1.5 -1.5 -1 1.5 1.5 -1 1.5 1.5 0 0 0 0 -1 3 -1 3 0 4 1 2 4 2 3 
4 2 1 1.38777878078145e-17
-0.1 -1.5 0 -0.1 -1.5 -1 -0.1 1.5 -1 -0.1 1.5 0 0 0 0 -1 3 -1 3 0 4 1 2 4 2 3 
4 2 1 1.38777878078145e-17
0.1 -1.5 0 0.1 -1.5 -1 0.1 1.5 -1 0.1 1.5 0 0 0 0 -1 3 -1 3 0 4 1 2 4 2 3 

TShapes 52
Ve
1e-07
-1.5 -1.5 0
0 0

0101101
*
Ed
 1e-07 1 1 0
1  1 0 0 1
6  1 1 0
6  2 2 0
0

0101000
+52 0 -52 1 *
Ve
1e-07
-1.5 1.5 0
0 0

0101101
*
Ed
 1e-07 1 1 0
1  2 0 0 1
6  3 3 0
2  1 2 0 0 1
6  4 1 0
6  5 4 0
0

0101000
+50 0 -50 1 *
Ed
 1e-07 1 1 0
1  3 0 -1.5 1.5
2  2 3 0 -1.5 1.5
6  6 5 0
6  7 5 3
6  8 6 0
6  9 7 0
6  10 6 5
6  11 1 0
6  12 8 0
6  13 1 6
6  14 9 6
0

0101000
+52 0 -50 0 *
Wi

0101100
+51 0 -49 0 -48 0 +48 1 *
Fa
0  1e-07 1 0
2  1
0101000
+47 0 *
Ve
1e-07
1.5 -1.5 0
0 0

0101101
*
Ed
 1e-07 1 1 0
1  4 0 0 1
6  15 2 0
6  16 10 0
0

0101000
+45 0 -45 1 *
Ed
 1e-07 1 1 0
1  5 0 -1.5 1.5
2  3 3 0 -1.5 1.5
6  17 11 0
6  18 11 3
6  19 12 0
6  20 7 0
6  21 12 5
6  22 2 0
6  23 8 0
6  24 2 6
6  25 9 6
0

0101000
+52 0 -45 0 *
Wi

0101100
+51 0 -44 0 -43 0 +43 1 *
Fa
0  1e-07 4 0
2  2
0101000
+42 0 *
Ve
1.50000000041633e-07
-0.1 1.5 0
0 0

0101101
*
Ed
 1e-07 1 1 0
1  6 0 -1.5 -0.1
2  4 3 0 -1.5 -0.1
2  5 2 0 -1.5 -0.1
2  6 2 6 -1.5 -0.1
6  26 4 0
6  27 8 0
0

0101000
+50 0 -40 0 *
Ve
1.50000000041633e-07
-0.1 1.5 -1
0 0

0101101
*
Ed
 1.5e-07 1 1 0
1  7 0 -1 0
2  7 2 0 -1 0
2  8 5 7 -1 0
6  28 4 0
6  29 13 0
0

0101000
+38 0 -40 0 *
Ed
 1e-07 1 1 0
1  6 0 -1.5 -0.1
2  4 3 0 -1.5 -0.1
2  5 2 0 -1.5 -0.1
2  6 2 6 -1.5 -0.1
6  30 4 6
6  31 9 6
0

0101000
+50 0 -38 6 *
Wi

0101100
-39 0 +37 0 +36 1 +49 0 *
Fa
0  1e-07 2 0
2  4
0101000
+35 0 *
Ve
1e-07
-0.1 -1.5 0
0 0

0101101
*
Ed
 1e-07 1 1 0
1  8 0 -1.5 0.5
2  9 6 0 -1.5 0.5
2  10 5 0 -1.5 0.5
2  11 5 9 -1.5 0.5
2  12 3 10 -1.5 0.5
6  32 8 10
6  33 13 10
0

0101000
+33 0 -40 10 *
Ve
1e-07
0.1 -1.5 0
0 0

0101101
*
Ed
 1e-07 1 1 0
1  9 0 -0.1 0.1
2  13 6 0 -0.1 0.1
6  34 14 0
6  35 14 12
6  36 15 0
6  37 15 14
6  38 16 0
2  14 7 0 -0.1 0.1
2  15 7 9 -0.1 0.1
2  16 3 10 -0.1 0.1
2  17 3 15 -0.1 0.1
6  39 8 10
6  40 17 0
6  41 9 16
6  42 17 9
0

0101000
+33 0 -31 0 *
Ve
1.50000000041633e-07
0.1 1.5 0
0 0

0101101
*
Ed
 1e-07 1 1 0
1  10 0 -1.5 0.5
2  18 6 0 -1.5 0.5
2  19 8 0 -1.5 0.5
2  20 8 9 -1.5 0.5
2  21 3 10 -1.5 0.5
6  43 8 10
6  44 18 10
0

0101000
+31 0 -29 10 *
Ve
1e-07
1.5 1.5 0
0 0

0101101
*
Ed
 1e-07 1 1 0
1  6 0 0.1 1.5
2  4 3 0 0.1 1.5
2  5 2 0 0.1 1.5
2  6 2 6 0.1 1.5
6  45 8 0
6  46 19 0
0

0101000
+29 0 -27 0 *
Ed
 1e-07 1 1 0
1  11 0 -1.5 1.5
2  22 3 0 -1.5 1.5
6  47 20 0
6  48 20 3
6  49 21 0
6  50 7 0
6  51 21 5
6  52 8 0
6  53 10 0
6  54 9 6
6  55 10 6
0

0101000
+45 0 -27 0 *
Wi

0101100
-48 0 -39 0 +32 7 -30 7 -28 7 -26 0 +25 0 +43 0 *
Fa
0  1e-07 3 0
2  8
0101000
+24 0 *
Ed
 1e-07 1 1 0
1  8 0 -1.5 0.5
2  9 6 0 -1.5 0.5
2  10 5 0 -1.5 0.5
2  11 5 9 -1.5 0.5
2  23 3 15 -1.5 0.5
6  56 9 16
6  57 13 16
0

0101000
+33 0 -38 16 *
Ve
1.50000000041633e-07
0.1 1.5 -1
0 0

0101101
*
Ed
 1e-07 1 1 0
1  10 0 -1.5 0.5
2  18 6 0 -1.5 0.5
2  19 8 0 -1.5 0.5
2  20 8 9 -1.5 0.5
2  24 3 15 -1.5 0.5
6  58 9 16
6  59 18 16
0

0101000
+31 0 -21 16 *
Ed
 1e-07 1 1 0
1  6 0 0.1 1.5
2  4 3 0 0.1 1.5
2  5 2 0 0.1 1.5
2  6 2 6 0.1 1.5
6  60 9 6
6  61 19 6
0

0101000
+21 6 -27 0 *
Wi

0101100
-48 1 -36 1 +22 17 -30 17 -20 17 -19 1 +25 1 +43 1 *
Fa
0  1e-07 3 1
2  9
0101000
+18 0 *
Ed
 1e-07 1 1 0
1  12 0 0 1
6  62 3 0
2  25 2 0 0 1
6  63 10 0
6  64 19 0
0

0101000
+27 0 -27 1 *
Wi

0101100
+44 0 -16 0 -25 0 +25 1 *
Fa
0  1e-07 9 0
2  10
0101000
+15 0 *
Ed
 1e-07 1 1 0
1  13 0 0 1
6  65 22 0
2  26 5 0 0 1
2  27 7 0 0 1
6  66 13 10
6  67 17 0
0

0101000
+33 0 -33 8 *
Wi

0101100
-32 7 +37 0 +22 17 +13 7 *
Fa
0  1e-07 5 7
2  13
0101000
+12 0 *
Ed
 1e-07 1 1 0
1  14 0 0 1
6  68 23 0
2  28 8 0 0 1
2  29 7 0 0 1
6  69 17 0
6  70 18 10
0

0101000
+31 0 -31 8 *
Wi

0101100
+13 0 -10 0 -30 0 +30 8 *
Fa
0  1e-07 7 0
2  17
0101000
+9 0 *
Ed
 1.5e-07 1 1 0
1  15 0 -1 0
2  30 2 0 -1 0
2  31 8 7 -1 0
6  71 18 0
6  72 19 0
0

0101000
+21 0 -29 0 *
Wi

0101100
-28 7 +7 0 +20 17 +10 7 *
Fa
0  1e-07 8 7
2  18
0101000
+6 0 *
Wi

0101100
-26 0 -16 0 +19 1 -7 0 *
Fa
0  1e-07 2 0
2  19
0101000
+4 0 *
Sh

0101100
-46 0 +41 0 -34 0 +23 0 -17 0 +14 0 +11 0 -8 7 -5 0 -3 0 
*
So

0100000
+2 0 *

+1 0 