DBRep_DrawableShape

CASCADE Topology V1, (c) Matra-Datavision
Locations 13
1
              1               0               0               0 
              0               1               0               0 
              0               0               1             0.5 
2  1 -1 0
1
              1               0               0               0 
              0               1               0               0 
              0               0               1             0.1 
2  3 -1 0
1
              1               0               0               0 
              0               1               0               0 
              0               0               1             0.2 
2  5 -1 0
1
              1               0               0               0 
              0               1               0               0 
              0               0               1             0.1 
2  7 -1 0
1
              1               0               0               0 
              0               1               0               0 
              0               0               1             0.1 
2  9 -1 0
1
              1               0               0               0 
              0               1               0               0 
              0               0               1             0.1 
2  11 -1 0
1
              1               0               0               0 
              0               1               0               2 
              0               0               1               0 
Curve2ds 50
1 0 0 1 0 
1 0 0 1 0 
1 0.5 0 0 -1 
1 0 0 0 1 
1 0 -1 1 0 
1 0 0 1 0 
1 0 0 0 -1 
1 0 0 0 1 
1 0 0 1 0 
1 0 2 1 0 
1 0.5 0 0 -1 
1 2 0 0 1 
1 0 -1 1 0 
1 0 2 1 0 
1 0 0 0 -1 
1 2 0 0 1 
1 0 0 0 1 
1 0 0 1 0 
1 0.5 0 0 1 
1 0 0 1 0 
1 0 0 0 1 
1 0 1 1 0 
1 0.5 0 0 1 
1 0 1 1 0 
1 6.2831853071795862 -3 -1 0 
8 0 1
1 0 -2 0 -1 
8 -3.1000000000000001 -1.8999999999999999
1 0.92729521800161263 0 0 1 
1 6.2831853071795862 -2 -1 0 
1 0 0 0 -1 
1 0 0 0 1 
1 0 0 0 1 
1 0 1 1 0 
1 0 0 0 -1 
1 2 0 0 1 
1 0 0 0 1 
1 0 0 1 0 
2 -1.3000000000000003 1.9000000000000001 0.56468391559199027 -0.82530726124983178 -0.82530726124983178 -0.56468391559199027 2.3021728866442679
8 -3.1000000000000001 -1.8999999999999999
1 1.8000000000000012 -2 0 -1 
2 -1.3000000000000003 1.9000000000000001 0.56468391559199027 -0.82530726124983178 -0.82530726124983178 -0.56468391559199027 2.3021728866442679
1 0 -1 1 0 
1 0 2 1 0 
1 1 0 0 1 
1 0 1 1 0 
1 0 0 1 0 
1 0 2 1 0 
1 1 0 0 -1 
1 2 0 0 1 
8 0 1
1 1.0141970087846739 -2 0 -1 
1 1 0 0 1 
1 0 0 1 0 
Curves 33
1 0 0 0 0 0 1 
1 0 0 0.5 -0 1 0 
1 0 1 0 0 0 1 
1 0 0 0 -0 1 0 
1 2 0 0 0 0 1 
1 2 0 0.5 -0 1 0 
1 2 1 0 0 0 1 
1 2 0 0 -0 1 0 
1 0 0 0 1 0 -0 
1 0 0 0.5 1 0 -0 
1 0 1 0 1 0 -0 
1 0 1 0.5 1 0 -0 
1 0 1 1.6000000000000001 1 0 -0 
1 1.8000000000000056 1 1.5 0 0 1 
2 1.9000000000000001 1 -0.80000000000000038 -0 -1 0 -0.82530726124983178 0 0.56468391559199027 -0.56468391559199027 0 -0.82530726124983178 2.3021728866442679
8 0 1.1000000000000001
1 0 1 0.5 0 0 1 
1 0 0 0.5 -0 1 0 
8 0 1.1000000000000001
1 0 0 0.5 0 0 1 
1 0 0 1.6000000000000001 -0 1 0 
1 1.8000000000000056 0 1.5 0 0 1 
1 1.8000000000000012 -2 1.5 -0 -1 -0 
1 1.8000000000000012 -2 1.6000000000000001 -0 -1 -0 
1 0 0 1.6000000000000001 1 0 -0 
2 1.9000000000000001 0 -0.80000000000000038 -0 -1 0 -0.82530726124983178 0 0.56468391559199027 -0.56468391559199027 0 -0.82530726124983178 2.3021728866442679
1 0 0 0 -0 1 0 
1 0 1 0 1 0 -0 
1 2 0 0 -0 1 0 
1 0 0 0 1 0 -0 
1 2 1 0 0 0 1 
1 0 1 1 1 0 -0 
1 2 0 0 0 0 1 
1 2 0 1 -0 1 0 
1 0 0 1 1 0 -0 
Polygon3D 0
PolygonOnTriangulations 91
2 1 2 
p 0.0080000008 1 0 0.5 
2 1 3 
p 0.0080000008 1 0 0.5 
2 2 4 
p 0.0080000008 1 0 1 
2 1 2 
p 0.0080000008 1 0 1 
2 3 4 
p 0.0080000008 1 0 0.5 
2 1 3 
p 0.0080000008 1 0 0.5 
2 1 3 
p 0.0080000008 1 0 1 
2 1 2 
p 0.0080000008 1 0 1 
2 1 2 
p 0.0080000008 1 0 0.5 
2 2 4 
p 0.0080000008 1 0 0.5 
2 2 4 
p 0.0080000008 1 0 1 
2 3 4 
p 0.0080000008 1 0 1 
2 3 4 
p 0.0080000008 1 0 0.5 
2 2 4 
p 0.0080000008 1 0 0.5 
2 1 3 
p 0.0080000008 1 0 1 
2 3 4 
p 0.0080000008 1 0 1 
2 1 2 
p 0.0080000008 1 0 2 
2 1 3 
p 0.0080000008 1 0 2 
2 3 4 
p 0.0080000008 1 0 2 
2 1 3 
p 0.0080000008 1 0 2 
2 1 2 
p 0.0080000008 1 0 2 
2 2 4 
p 0.0080000008 1 0 2 
2 3 4 
p 0.0080000008 1 0 2 
2 2 4 
p 0.0080000008 1 0 2 
2 1 2 
p 0.00720000080000006 1 0 1.80000000000001 
2 1 2 
p 0.00720000080000006 1 0 1.80000000000001 
2 3 2 
p 0.00720000080000006 1 0 0.1 
2 1 2 
p 0.00720000080000006 1 0 0.1 
10 12 13 14 15 16 17 18 19 20 11 
p 0.00720000080000006 1 5.35589008917797 5.45892289117815 5.56195569317833 5.66498849517851 5.76802129717869 5.87105409917887 5.97408690117905 6.07711970317922 6.1801525051794 6.28318530717959 
10 3 4 5 6 7 8 9 10 11 12 
p 0.00720000080000006 1 5.35589008917797 5.45892289117815 5.56195569317833 5.66498849517851 5.76802129717869 5.87105409917887 5.97408690117905 6.07711970317922 6.1801525051794 6.28318530717959 
2 12 1 
p 0.00720000080000006 1 0 1.1 
2 1 2 
p 0.00720000080000006 1 0 1.1 
2 10 11 
p 0.00720000080000006 1 0 1 
2 3 1 
p 0.00720000080000006 1 0 1 
2 3 4 
p 0.00720000080000006 1 0 1.1 
2 12 1 
p 0.00720000080000006 1 0 1.1 
2 4 2 
p 0.00720000080000006 1 0 1 
2 3 1 
p 0.00720000080000006 1 0 1 
2 4 3 
p 0.00720000080000006 1 0 0.1 
2 3 2 
p 0.00720000080000006 1 0 0.1 
2 12 1 
p 0.00720000080000006 1 -3 -2 
2 1 4 
p 0.00720000080000006 1 -3 -2 
2 2 3 
p 0.00720000080000006 1 -3 -2 
2 2 4 
p 0.00720000080000006 1 -3 -2 
2 3 4 
p 0.00720000080000006 1 0 1.80000000000001 
2 1 2 
p 0.00720000080000006 1 0 1.80000000000001 
10 1 2 3 4 5 6 7 8 9 10 
p 0.00720000080000006 1 5.35589008917797 5.45892289117815 5.56195569317833 5.66498849517851 5.76802129717869 5.87105409917887 5.97408690117905 6.07711970317922 6.1801525051794 6.28318530717959 
10 3 4 5 6 7 8 9 10 11 12 
p 0.00720000080000006 1 5.35589008917797 5.45892289117815 5.56195569317833 5.66498849517851 5.76802129717869 5.87105409917887 5.97408690117905 6.07711970317922 6.1801525051794 6.28318530717959 
2 1 2 
p 0.0080000008 1 0 1 
2 1 3 
p 0.0040000008 1 0 1 
2 10 11 
p 0.00720000080000002 1 0 1 
2 1 2 
p 0.0080000008 1 0 2 
2 2 4 
p 0.0080000008 1 0 2 
2 3 1 
p 0.0080000008 1 0 2 
2 3 4 
p 0.0080000008 1 0 1 
2 1 3 
p 0.0040000008 1 0 1 
2 1 2 
p 0.0080000008 1 0 2 
2 1 3 
p 0.0080000008 1 0 2 
2 3 1 
p 0.0080000008 1 0 2 
9 4 5 6 7 8 9 10 11 3 
p 0.0080000008 1 5.35589008917797 5.47180199142817 5.58771389367838 5.70362579592858 5.81953769817878 5.93544960042898 6.05136150267919 6.16727340492939 6.28318530717959 
10 1 2 3 4 5 6 7 8 9 10 
p 0.00720000080000002 1 5.35589008917797 5.45892289117815 5.56195569317833 5.66498849517851 5.76802129717869 5.87105409917887 5.97408690117905 6.07711970317922 6.1801525051794 6.28318530717959 
10 1 2 3 4 5 6 7 8 9 10 
p 0.00720000080000002 1 5.35589008917797 5.45892289117815 5.56195569317833 5.66498849517851 5.76802129717869 5.87105409917887 5.97408690117905 6.07711970317922 6.1801525051794 6.28318530717959 
2 2 4 
p 0.00720000080000002 1 -3 -2 
2 12 1 
p 0.00720000080000002 1 -3 -2 
2 1 3 
p 0.0040000008 1 -3 -2 
2 1 4 
p 0.00720000080000002 1 -3 -2 
2 2 3 
p 0.00720000080000006 1 -3 -2 
2 1 4 
p 0.00720000080000002 1 -3 -2 
2 2 3 
p 0.00720000080000006 1 -3 -2 
2 1 4 
p 0.00720000080000002 1 -3 -2 
2 2 3 
p 0.00720000080000006 1 -3 -2 
2 1 4 
p 0.00720000080000002 1 -3 -2 
2 2 3 
p 0.00720000080000006 1 -3 -2 
2 1 4 
p 0.00720000080000002 1 -3 -2 
2 2 3 
p 0.00720000080000006 1 -3 -2 
9 4 5 6 7 8 9 10 11 3 
p 0.0080000008 1 5.35589008917797 5.47180199142817 5.58771389367838 5.70362579592858 5.81953769817878 5.93544960042898 6.05136150267919 6.16727340492939 6.28318530717959 
10 1 2 3 4 5 6 7 8 9 10 
p 0.00720000080000002 1 5.35589008917797 5.45892289117815 5.56195569317833 5.66498849517851 5.76802129717869 5.87105409917887 5.97408690117905 6.07711970317922 6.1801525051794 6.28318530717959 
10 12 13 14 15 16 17 18 19 20 11 
p 0.00720000080000002 1 5.35589008917797 5.45892289117815 5.56195569317833 5.66498849517851 5.76802129717869 5.87105409917887 5.97408690117905 6.07711970317922 6.1801525051794 6.28318530717959 
2 2 4 
p 0.0080000008 1 0 1 
2 1 2 
p 0.0080000008 1 0 1 
2 3 4 
p 0.0040000008 1 0 1 
2 4 2 
p 0.0080000008 1 1.80000000000001 2 
2 1 2 
p 0.0040000008 1 1.80000000000001 2 
2 2 4 
p 0.0080000008 1 0 1 
2 1 2 
p 0.0080000008 1 0 1 
2 1 2 
p 0.0040000008 1 0 1 
2 3 4 
p 0.0080000008 1 0 1 
2 2 4 
p 0.0040000008 1 0 1 
2 4 2 
p 0.0040000008 1 0 1 
2 4 2 
p 0.0080000008 1 1.80000000000001 2 
2 3 4 
p 0.0040000008 1 1.80000000000001 2 
Surfaces 18
1 0 0 0 1 0 -0 0 0 1 0 -1 0 
1 0 0 0 -0 1 0 0 0 1 1 0 -0 
1 0 0 0.5 0 0 1 1 0 -0 -0 1 0 
1 0 1 0 -0 1 0 0 0 1 1 0 -0 
1 0 0 0 0 0 1 1 0 -0 -0 1 0 
1 2 0 0 1 0 -0 0 0 1 0 -1 0 
1 0 1 1.5 -0 1 0 1 0 -0 -0 0 -1 
2 1.9000000000000001 -2 -0.80000000000000038 -0 -1 -0 -0.82530726124983178 0 0.56468391559199027 0.56468391559199027 -0 0.82530726124983178 2.3021728866442679
1 0 0 1.5 -1 -0 0 -0 1 0 -0 0 -1 
1 1.8000000000000012 1 1.5 1 0 0 0 -1 0 0 0 -1 
1 0 0 1.6000000000000001 0 0 1 1 0 -0 -0 1 0 
1 0 0 1.5 -0 1 0 1 0 -0 -0 0 -1 
1 0 0 0 0 0 1 1 0 -0 -0 1 0 
1 0 0 0 1 0 -0 0 0 1 0 -1 0 
1 0 1 0 -0 1 0 0 0 1 1 0 -0 
1 2 0 0 1 0 -0 0 0 1 0 -1 0 
1 0 0 0 -0 1 0 0 0 1 1 0 -0 
1 0 0 1 0 0 1 1 0 -0 -0 1 0 
Triangulations 30
4 2 1 0.0080000008
0 0 0 0 0 0.5 0 1 0 0 1 0.5 0 0 0.5 0 0 -1 0.5 -1 2 1 3 2 3 4 
4 2 1 0.0080000008
0 0 0 2 0 0 0 0 0.5 2 0 0.5 0 0 0 2 0.5 0 0.5 2 4 2 1 4 1 3 
4 2 1 0.0080000008
0 0 0.5 0 1 0.5 2 0 0.5 2 1 0.5 0 0 0 1 2 0 2 1 4 2 1 4 1 3 
4 2 1 0.0080000008
0 1 0 2 1 0 0 1 0.5 2 1 0.5 0 0 0 2 0.5 0 0.5 2 4 2 1 4 1 3 
4 2 1 0.0080000008
0 0 0 0 1 0 2 0 0 2 1 0 0 0 0 1 2 0 2 1 4 2 1 4 1 3 
4 2 1 0.0080000008
2 0 0 2 0 0.5 2 1 0 2 1 0.5 0 0 0.5 0 0 -1 0.5 -1 2 1 3 2 3 4 
12 10 1 0.00720000080000006
0 1 1.6 1.80000000000001 1 1.6 1.80000000000001 1 1.5 1.56397393043513 1 1.47751761366905 1.33151187783378 1 1.4308790318966 1.10507942083371 1 1.36057892075664 0.88707818594827 1 1.26736290926827 0.679820375025982 1 1.15221968097811 0.48550424118128 1 1.0163704876164 0.306190773307691 1 0.86125619604878 0.143781836466216 1 0.688522005908553 0 1 0.5 0 -0.1 1.80000000000001 -0.1 1.8 -4.44089209850063e-16 1.56397393043513 0.0224823863309456 1.33151187783378 0.0691209681033973 1.10507942083371 0.139421079243359 0.88707818594827 0.232637090731733 0.679820375025982 0.347780319021892 0.48550424118128 0.483629512383596 0.306190773307691 0.63874380395122 0.143781836466216 0.811477994091446 0 1 11 1 10 9 10 1 12 1 11 8 9 1 7 8 1 6 7 1 5 6 1 2 4 5 2 5 1 3 4 2 
4 2 1 0.00720000080000006
0 1 1.6 1.80000000000001 1 1.6 0 0 1.6 1.80000000000001 0 1.6 0 1 1.8 1 0 0 1.8 0 2 1 3 2 3 4 
4 2 1 0.00720000080000006
1.80000000000001 1 1.5 1.80000000000001 1 1.6 1.80000000000001 0 1.6 1.80000000000001 0 1.5 0 0 0 -0.1 1 -0.1 1 0 4 1 2 4 2 3 
20 18 1 0.00720000080000006
1.80000000000001 0 1.5 1.56397393043513 0 1.47751761366905 1.33151187783378 0 1.4308790318966 1.10507942083371 0 1.36057892075664 0.88707818594827 0 1.26736290926827 0.679820375025982 0 1.15221968097811 0.48550424118128 0 1.0163704876164 0.306190773307691 0 0.86125619604878 0.143781836466216 0 0.688522005908553 0 0 0.5 0 1 0.5 1.80000000000001 1 1.5 1.56397393043513 1 1.47751761366905 1.33151187783378 1 1.4308790318966 1.10507942083371 1 1.36057892075664 0.88707818594827 1 1.26736290926827 0.679820375025982 1 1.15221968097811 0.48550424118128 1 1.0163704876164 0.306190773307691 1 0.86125619604878 0.143781836466216 1 0.688522005908553 0.927295218001613 -2 0.824262416001435 -2 0.721229614001256 -2 0.618196812001077 -2 0.515164010000898 -2 0.412131208000719 -2 0.30909840600054 -2 0.206065604000361 -2 0.103032802000182 -2 0 -2 0 -3 0.927295218001613 -3 0.824262416001435 -3 0.721229614001256 -3 0.618196812001077 -3 0.515164010000898 -3 0.412131208000719 -3 0.30909840600054 -3 0.206065604000361 -3 0.103032802000182 -3 9 10 11 9 11 20 8 20 19 8 9 20 7 19 18 7 8 19 6 18 17 6 7 18 5 17 16 5 6 17 4 16 15 4 5 16 3 15 14 3 4 15 2 13 12 2 14 13 2 3 14 1 2 12 
4 2 1 0.00720000080000006
0 1 0.5 0 1 1.6 0 0 0.5 0 0 1.6 1 1 1 -0.1 0 1 0 -0.1 1 3 4 1 4 2 
12 10 1 0.00720000080000006
0 0 1.6 1.80000000000001 0 1.6 1.80000000000001 0 1.5 1.56397393043513 0 1.47751761366905 1.33151187783378 0 1.4308790318966 1.10507942083371 0 1.36057892075664 0.88707818594827 0 1.26736290926827 0.679820375025982 0 1.15221968097811 0.48550424118128 0 1.0163704876164 0.306190773307691 0 0.86125619604878 0.143781836466216 0 0.688522005908553 0 0 0.5 0 -0.1 1.80000000000001 -0.1 1.8 -4.44089209850063e-16 1.56397393043513 0.0224823863309456 1.33151187783378 0.0691209681033973 1.10507942083371 0.139421079243359 0.88707818594827 0.232637090731733 0.679820375025982 0.347780319021892 0.48550424118128 0.483629512383596 0.306190773307691 0.63874380395122 0.143781836466216 0.811477994091446 0 1 11 1 10 9 10 1 12 1 11 8 9 1 7 8 1 6 7 1 5 6 1 2 4 5 2 5 1 3 4 2 
4 2 1 0.0080000008
0 0 0 0 1 0 2 0 0 2 1 0 0 0 0 1 2 0 2 1 4 2 1 4 1 3 
4 2 1 0.0040000008
0 0 0 0 0 1 0 1 0 0 1 1 0 0 1 0 0 -1 1 -1 2 1 3 2 3 4 
20 18 1 0.00720000080000002
1.80000000000001 0 1.5 1.56397393043513 0 1.47751761366905 1.33151187783378 0 1.4308790318966 1.10507942083371 0 1.36057892075664 0.88707818594827 0 1.26736290926827 0.679820375025982 0 1.15221968097811 0.48550424118128 0 1.0163704876164 0.306190773307691 0 0.86125619604878 0.143781836466216 0 0.688522005908553 0 0 0.5 0 1 0.5 1.80000000000001 1 1.5 1.56397393043513 1 1.47751761366905 1.33151187783378 1 1.4308790318966 1.10507942083371 1 1.36057892075664 0.88707818594827 1 1.26736290926827 0.679820375025982 1 1.15221968097811 0.48550424118128 1 1.0163704876164 0.306190773307691 1 0.86125619604878 0.143781836466216 1 0.688522005908553 0.927295218001613 -2 0.824262416001435 -2 0.721229614001256 -2 0.618196812001077 -2 0.515164010000898 -2 0.412131208000719 -2 0.30909840600054 -2 0.206065604000361 -2 0.103032802000182 -2 0 -2 0 -3 0.927295218001613 -3 0.824262416001435 -3 0.721229614001256 -3 0.618196812001077 -3 0.515164010000898 -3 0.412131208000719 -3 0.30909840600054 -3 0.206065604000361 -3 0.103032802000182 -3 9 10 11 9 11 20 8 20 19 8 9 20 7 19 18 7 8 19 6 18 17 6 7 18 5 17 16 5 6 17 4 16 15 4 5 16 3 15 14 3 4 15 2 13 12 2 14 13 2 3 14 1 2 12 
4 2 1 0.0080000008
0 1 0 2 1 0 0 1 1 2 1 1 0 0 0 2 1 0 1 2 4 2 1 4 1 3 
11 9 1 0.0080000008
2 1 0.5 2 1 1.5 0 1 0.5 1.80000000000001 1 1.5 1.53467023180271 1 1.47300113516666 1.2742433837943 1 1.41549738372104 1.0222145230675 1 1.32826047665374 0.781966011250104 1 1.21246117974981 0.556722111409279 1 1.06965358128806 0.349505716722879 1 0.901754235348032 0.163097781641968 1 0.71101644063291 0 2 1 2 4.44089209850063e-16 2.22044604925031e-16 1 1.80000000000001 0.973001135166658 1.53467023180271 0.915497383721044 1.2742433837943 0.828260476653735 1.0222145230675 0.71246117974981 0.781966011250104 0.569653581288056 0.556722111409279 0.401754235348033 0.349505716722879 0.21101644063291 0.163097781641968 1 8 7 1 9 8 1 10 9 1 11 10 1 3 11 6 1 7 5 1 6 4 1 5 2 1 4 
4 2 1 0.0040000008
2 0 0 2 0 1 2 1 0 2 1 1 0 0 1 0 0 -1 1 -1 2 1 3 2 3 4 
4 2 1 0.0080000008
0 0 0 2 0 0 0 0 1 2 0 1 0 0 0 2 1 0 1 2 4 2 1 4 1 3 
11 9 1 0.0080000008
2 0 0.5 2 0 1.5 0 0 0.5 1.80000000000001 0 1.5 1.53467023180271 0 1.47300113516666 1.2742433837943 0 1.41549738372104 1.0222145230675 0 1.32826047665374 0.781966011250104 0 1.21246117974981 0.556722111409279 0 1.06965358128806 0.349505716722879 0 0.901754235348032 0.163097781641968 0 0.71101644063291 0 2 1 2 4.44089209850063e-16 2.22044604925031e-16 1 1.80000000000001 0.973001135166658 1.53467023180271 0.915497383721044 1.2742433837943 0.828260476653735 1.0222145230675 0.71246117974981 0.781966011250104 0.569653581288056 0.556722111409279 0.401754235348033 0.349505716722879 0.21101644063291 0.163097781641968 1 8 7 1 9 8 1 10 9 1 11 10 1 3 11 6 1 7 5 1 6 4 1 5 2 1 4 
11 9 1 0.00720000080000002
1.80000000000001 0 1.5 1.56397393043513 0 1.47751761366905 1.33151187783378 0 1.4308790318966 1.10507942083371 0 1.36057892075664 0.88707818594827 0 1.26736290926827 0.679820375025982 0 1.15221968097811 0.48550424118128 0 1.0163704876164 0.306190773307691 0 0.86125619604878 0.143781836466216 0 0.688522005908553 0 0 0.5 0 0 1.5 1 1.80000000000001 0.977517613669054 1.56397393043513 0.930879031896603 1.33151187783378 0.860578920756641 1.10507942083371 0.767362909268267 0.88707818594827 0.652219680978108 0.679820375025982 0.516370487616404 0.48550424118128 0.36125619604878 0.306190773307691 0.188522005908554 0.143781836466216 0 0 1 0 11 8 9 11 9 10 7 8 11 6 7 11 5 6 11 4 5 11 3 4 11 11 1 2 11 2 3 
4 2 1 0.00720000080000002
0 1 1.5 1.80000000000001 1 1.5 0 0 1.5 1.80000000000001 0 1.5 0 1 1.8 1 0 0 1.8 0 2 1 3 2 3 4 
4 2 1 0.0040000008
1.80000000000001 1 1.5 2 1 1.5 1.80000000000001 0 1.5 2 0 1.5 1.8 1 2 1 1.80000000000001 0 2 0 2 1 3 2 3 4 
4 2 1 0.00720000080000006
1.80000000000001 1 1.5 1.80000000000001 1 1.6 1.80000000000001 0 1.6 1.80000000000001 0 1.5 0 0 0 -0.1 1 -0.1 1 0 4 1 2 4 2 3 
4 2 1 0.00720000080000006
1.80000000000001 1 1.5 1.80000000000001 1 1.7 1.80000000000001 0 1.7 1.80000000000001 0 1.5 0 0 0 -0.2 1 -0.2 1 0 4 1 2 4 2 3 
4 2 1 0.00720000080000006
1.80000000000001 1 1.5 1.80000000000001 1 1.6 1.80000000000001 0 1.6 1.80000000000001 0 1.5 0 0 0 -0.1 1 -0.1 1 0 4 1 2 4 2 3 
4 2 1 0.00720000080000006
1.80000000000001 1 1.5 1.80000000000001 1 1.6 1.80000000000001 0 1.6 1.80000000000001 0 1.5 0 0 0 -0.1 1 -0.1 1 0 4 1 2 4 2 3 
4 2 1 0.00720000080000006
1.80000000000001 1 1.5 1.80000000000001 1 1.6 1.80000000000001 0 1.6 1.80000000000001 0 1.5 0 0 0 -0.1 1 -0.1 1 0 4 1 2 4 2 3 
11 9 1 0.00720000080000002
1.80000000000001 1 1.5 1.56397393043513 1 1.47751761366905 1.33151187783378 1 1.4308790318966 1.10507942083371 1 1.36057892075664 0.88707818594827 1 1.26736290926827 0.679820375025982 1 1.15221968097811 0.48550424118128 1 1.0163704876164 0.306190773307691 1 0.86125619604878 0.143781836466216 1 0.688522005908553 0 1 0.5 0 1 1.5 1 1.80000000000001 0.977517613669054 1.56397393043513 0.930879031896603 1.33151187783378 0.860578920756641 1.10507942083371 0.767362909268267 0.88707818594827 0.652219680978108 0.679820375025982 0.516370487616404 0.48550424118128 0.36125619604878 0.306190773307691 0.188522005908554 0.143781836466216 0 0 1 0 11 8 9 11 9 10 7 8 11 6 7 11 5 6 11 4 5 11 3 4 11 11 1 2 11 2 3 
4 2 1 0.0080000008
0 0 1 0 1 1 2 0 1 2 1 1 0 0 0 1 2 0 2 1 4 2 1 4 1 3 

TShapes 104
Ve
1e-07
0 0 0.5
0 0

0101101
*
Ve
1e-07
0 0 0
0 0

0101101
*
Ed
 1e-07 1 1 0
1  1 0 0 0.5
2  1 1 0 0 0.5
2  2 2 0 0 0.5
6  1 1 0
6  2 2 0
0

0101000
-104 0 +103 0 *
Ve
1e-07
0 1 0.5
0 0

0101101
*
Ed
 1e-07 1 1 0
1  2 0 0 1
2  3 1 0 0 1
2  4 3 0 0 1
6  3 1 0
6  4 3 0
0

0101000
-101 0 +104 0 *
Ve
1e-07
0 1 0
0 0

0101101
*
Ed
 1e-07 1 1 0
1  3 0 0 0.5
2  5 1 0 0 0.5
2  6 4 0 0 0.5
6  5 1 0
6  6 4 0
0

0101000
-101 0 +99 0 *
Ed
 1e-07 1 1 0
1  4 0 0 1
2  7 1 0 0 1
2  8 5 0 0 1
6  7 1 0
6  8 5 0
0

0101000
-99 0 +103 0 *
Wi

0101100
-102 0 -100 0 +98 0 +97 0 *
Fa
0  1e-07 1 0
2  1
0111000
+96 0 *
Ve
1e-07
2 0 0.5
0 0

0101101
*
Ve
1e-07
2 0 0
0 0

0101101
*
Ed
 1e-07 1 1 0
1  5 0 0 0.5
2  9 6 0 0 0.5
2  10 2 0 0 0.5
6  9 6 0
6  10 2 0
0

0101000
-94 0 +93 0 *
Ve
1e-07
2 1 0.5
0 0

0101101
*
Ed
 1e-07 1 1 0
1  6 0 0 1
2  11 6 0 0 1
2  12 3 0 0 1
6  11 6 0
6  12 3 0
0

0101000
-91 0 +94 0 *
Ve
1e-07
2 1 0
0 0

0101101
*
Ed
 1e-07 1 1 0
1  7 0 0 0.5
2  13 6 0 0 0.5
2  14 4 0 0 0.5
6  13 6 0
6  14 4 0
0

0101000
-91 0 +89 0 *
Ed
 1e-07 1 1 0
1  8 0 0 1
2  15 6 0 0 1
2  16 5 0 0 1
6  15 6 0
6  16 5 0
0

0101000
-89 0 +93 0 *
Wi

0101100
-92 0 -90 0 +88 0 +87 0 *
Fa
0  1e-07 6 0
2  6
0111000
+86 0 *
Ed
 1e-07 1 1 0
1  9 0 0 2
2  17 2 0 0 2
2  18 5 0 0 2
6  17 2 0
6  18 5 0
0

0101000
-93 0 +103 0 *
Ed
 1e-07 1 1 0
1  10 0 0 2
2  19 2 0 0 2
2  20 3 0 0 2
6  19 2 0
6  20 3 0
0

0101000
-94 0 +104 0 *
Wi

0101100
-84 0 -92 0 +83 0 +102 0 *
Fa
0  1e-07 2 0
2  2
0111000
+82 0 *
Ed
 1e-07 1 1 0
1  11 0 0 2
2  21 4 0 0 2
2  22 5 0 0 2
6  21 4 0
6  22 5 0
0

0101000
-89 0 +99 0 *
Ed
 1e-07 1 1 0
1  12 0 0 2
2  23 4 0 0 2
2  24 3 0 0 2
6  23 4 0
6  24 3 0
0

0101000
-91 0 +101 0 *
Wi

0101100
-80 0 -88 0 +79 0 +98 0 *
Fa
0  1e-07 4 0
2  4
0111000
+78 0 *
Wi

0101100
-97 0 -80 0 +87 0 +84 0 *
Fa
0  1e-07 5 0
2  5
0111000
+76 0 *
Wi

0101100
-100 0 -79 0 +90 0 +83 0 *
Fa
0  1e-07 3 0
2  3
0111000
+74 0 *
Sh

0101100
-95 0 +85 0 -81 0 +77 0 -75 0 +73 0 *
So

0100000
+72 0 *
Ve
1e-07
0 1 1.6
0 0

0101101
*
Ve
1.00000004440892e-07
1.80000000000001 1 1.6
0 0

0101101
*
Ed
 1e-07 1 1 0
1  13 0 0 1.80000000000001
6  25 7 0
6  26 8 0
0

0101000
+70 0 -69 0 *
Ve
1.00000004440892e-07
1.80000000000001 1 1.5
0 0

0101101
*
Ed
 1.00000004440892e-07 1 1 0
1  14 0 0 0.1
6  27 7 0
6  28 9 0
0

0101000
+67 0 -69 0 *
Ve
1.50001e-07
0 1 0.5
0 0

0101101
*
Ed
 1e-07 1 1 0
1  15 0 5.35589008917797 6.28318530717959
2  25 8 0 5.35589008917797 6.28318530717959
6  29 10 0
6  30 7 0
0

0101000
+67 0 -65 0 *
Ed
 1e-07 1 1 0
1  16 0 0 1.1
6  31 7 0
6  32 11 0
0

0101000
+65 0 -70 0 *
Wi

0101100
+68 0 -66 0 +64 0 +63 0 *
Fa
0  0 7 0
2  7
0111000
+62 0 *
Ve
1.50001e-07
0 0 0.5
0 0

0101101
*
Ed
 1.00000000248253e-07 1 1 0
1  17 0 0 1
2  26 8 0 0 1
6  33 10 0
6  34 11 0
0

0101000
-65 0 +60 0 *
Ve
1e-07
0 0 1.6
0 0

0101101
*
Ed
 1e-07 1 1 0
1  18 0 0 1.1
6  35 11 0
6  36 12 0
0

0101000
+60 0 -58 0 *
Ed
 1e-07 1 1 0
1  19 0 0 1
6  37 11 0
6  38 8 0
0

0101000
-70 0 +58 0 *
Wi

0101100
-63 0 -59 0 +57 0 +56 0 *
Fa
0  0 9 0
2  11
0111000
+55 0 *
Ve
1.00000004440892e-07
1.80000000000001 0 1.5
0 0

0101101
*
Ve
1.00000004440892e-07
1.80000000000001 0 1.6
0 0

0101101
*
Ed
 1.00000004440892e-07 1 1 0
1  20 0 0 0.1
6  39 9 0
6  40 12 0
0

0101000
+53 0 -52 0 *
Ed
 1e-07 1 1 0
1  21 0 -3 -2
2  27 8 0 -3 -2
6  41 10 0
6  42 9 0
0

0101000
+67 0 -53 0 *
Ed
 1e-07 1 1 0
1  22 0 -3 -2
6  43 9 0
6  44 8 0
0

0101000
+69 0 -52 0 *
Wi

0101100
+66 0 -51 0 -50 0 +49 0 *
Fa
0  1e-07 10 0
2  9
0111000
+48 0 *
Ed
 1e-07 1 1 0
1  23 0 0 1.80000000000001
6  45 8 0
6  46 12 0
0

0101000
+58 0 -52 0 *
Wi

0101100
-68 0 -49 0 +46 0 -56 0 *
Fa
0  1e-07 11 0
2  8
0111000
+45 0 *
Ed
 1e-07 1 1 0
1  24 0 5.35589008917797 6.28318530717959
2  28 8 0 5.35589008917797 6.28318530717959
6  47 10 0
6  48 12 0
0

0101000
+53 0 -60 0 *
Wi

0101100
+46 0 -51 0 +43 0 +57 0 *
Fa
0  0 12 0
2  12
0111000
+42 0 *
Wi

0101100
+43 0 +50 0 -64 0 +59 0 *
Fa
0  1e-07 8 0
2  10
0111000
+40 0 *
Sh

0101100
+61 0 +54 0 +47 0 +44 0 -41 0 +39 0 *
So

0100000
+38 0 *
Ve
1.50001e-07
0 1 0
0 0

0101101
*
Ve
1.50001e-07
0 0 0
0 0

0101101
*
Ed
 1.00000000248253e-07 1 1 0
1  25 0 0 1
2  29 14 0 0 1
2  30 13 0 0 1
6  49 13 0
2  26 8 2 0 1
6  50 14 0
6  51 15 2
0

0101000
-36 0 +35 0 *
Ve
1e-07
2 1 0
0 0

0101101
*
Ed
 1e-07 1 1 0
1  26 0 0 2
2  31 15 0 0 2
2  32 13 0 0 2
6  52 16 0
6  53 13 0
6  54 17 2
0

0101000
-33 0 +36 0 *
Ve
1e-07
2 0 0
0 0

0101101
*
Ed
 1e-07 1 1 0
1  27 0 0 1
2  33 16 0 0 1
2  34 13 0 0 1
6  55 13 0
6  56 18 0
0

0101000
-33 0 +31 0 *
Ed
 1e-07 1 1 0
1  28 0 0 2
2  35 17 0 0 2
2  36 13 0 0 2
6  57 19 0
6  58 13 0
6  59 20 2
0

0101000
-31 0 +35 0 *
Wi

0101100
-34 0 -32 0 +30 0 +29 0 *
Fa
0  1e-07 13 0
2  13
0111000
+28 0 *
Ve
1.00000004440892e-07
1.80000000000001 0 1.5
0 0

0101101
*
Ed
 1e-07 1 1 0
1  24 0 5.35589008917797 6.28318530717959
2  37 17 1 5.35589008917797 6.28318530717959
2  28 8 0 5.35589008917797 6.28318530717959
6  60 20 0
6  61 21 0
6  62 15 0
0

0101000
+26 0 -35 1 *
Ve
1.00000004440892e-07
1.80000000000001 1 1.5
0 0

0101101
*
Ed
 1e-07 1 1 0
1  21 0 -3 -2
2  38 18 1 -3 -2
2  27 8 0 -3 -2
6  63 22 0
6  64 15 0
6  65 23 0
6  66 24 0
6  67 24 4
6  68 25 0
6  69 25 6
6  70 26 0
6  71 26 8
6  72 27 0
6  73 27 10
6  74 28 0
6  75 28 12
0

0101000
+24 0 -26 0 *
Ed
 1e-07 1 1 0
1  15 0 5.35589008917797 6.28318530717959
2  39 15 1 5.35589008917797 6.28318530717959
2  25 8 0 5.35589008917797 6.28318530717959
6  76 17 0
6  77 29 0
6  78 15 0
0

0101000
+24 0 -36 1 *
Wi

0101100
+25 0 +23 0 -22 0 +34 1 *
Fa
0  1e-07 8 0
2  15
0111000
+21 0 *
Ve
1.00000000496507e-07
2 1 1
0 0

0101101
*
Ed
 1e-07 1 1 0
1  29 0 0 1
2  40 16 0 0 1
2  41 15 0 0 1
6  79 16 0
6  80 17 2
6  81 18 0
0

0101000
-19 0 +33 0 *
Ed
 1e-07 1 1 0
1  30 0 1.80000000000001 2
2  42 15 0 1.80000000000001 2
2  43 18 0 1.80000000000001 2
6  82 17 2
6  83 23 2
0

0101000
+24 2 -19 0 *
Wi

0101100
-18 1 +17 1 -22 0 -32 1 *
Fa
0  1e-07 15 1
2  17
0111000
+16 0 *
Ve
1.00000000496507e-07
2 0 1
0 0

0101101
*
Ed
 1e-07 1 1 0
1  31 0 0 1
2  44 16 0 0 1
2  45 17 0 0 1
6  84 19 0
6  85 20 2
6  86 18 0
0

0101000
-14 0 +31 0 *
Ed
 1.00000000496507e-07 1 1 0
1  32 0 0 1
2  46 16 0 0 1
2  47 18 0 0 1
6  87 30 0
2  48 8 2 0 1
6  88 18 0
6  89 23 2
0

0101000
-19 0 +14 0 *
Wi

0101100
-13 0 -12 0 +18 0 +30 0 *
Fa
0  1e-07 16 0
2  18
0111000
+11 0 *
Ed
 1e-07 1 1 0
1  33 0 1.80000000000001 2
2  49 17 0 1.80000000000001 2
2  50 18 0 1.80000000000001 2
6  90 20 2
6  91 23 2
0

0101000
+26 2 -14 0 *
Wi

0101100
-13 1 +9 1 -25 0 -29 1 *
Fa
0  1e-07 17 1
2  20
0111000
+8 0 *
Wi

0101100
-17 1 +12 1 +9 1 +23 0 *
Fa
0  1e-07 18 1
2  23
0111000
+6 0 *
Sh

0101100
-27 1 -20 0 +15 0 +10 1 -7 0 +5 0 *
So

0100000
+4 0 *
Co

0100000
+71 0 +37 0 +3 0 *
Co

1100000
+2 0 +2 13 *

+1 0 