DBRep_DrawableShape

CASCADE Topology V1, (c) Matra-Datavision
Locations 4
1
              1               0               0               0 
              0               1               0               0 
              0               0               1            -0.2 
1
              1               0               0               0 
              0               1               0               0 
              0               0               1            -0.2 
2  2 -1 0
2  1 -1 0
Curve2ds 4
1 0 0 0 1 
1 0 0 1 0 
1 2.5 0 0 1 
1 0 3.4499999999999997 1 0 
Curves 8
1 -0.25 -0.25 0 0 0 -1 
1 -0.25 3.1999999999999997 0 0 0 -1 
1 -0.25 -0.25 0 0 1 0 
1 2.25 -0.25 0 0 0 -1 
1 -0.25 -0.25 0 1 0 0 
1 2.25 3.1999999999999997 0 0 0 -1 
1 2.25 -0.25 0 0 1 0 
1 -0.25 3.1999999999999997 0 1 0 0 
Polygon3D 0
PolygonOnTriangulations 28
2 1 2 
p 0.0138000008 1 0 0.2 
2 1 2 
p 0.0138000008 1 0 0.2 
2 4 3 
p 0.0138000008 1 0 0.2 
2 1 2 
p 0.0138000008 1 0 0.2 
2 1 2 
p 0.0138000008 1 0 3.45 
2 1 4 
p 0.0138000008 1 0 3.45 
2 2 3 
p 0.0138000008 1 0 3.45 
2 1 4 
p 0.0138000008 1 0 3.45 
2 2 3 
p 0.0138000008 1 0 3.45 
2 4 3 
p 0.0138000008 1 0 0.2 
2 1 2 
p 0.0138000008 1 0 0.2 
2 1 3 
p 0.0138000008 1 0 2.5 
2 1 4 
p 0.0138000008 1 0 2.5 
2 2 3 
p 0.0138000008 1 0 2.5 
2 1 4 
p 0.0138000008 1 0 2.5 
2 2 3 
p 0.0138000008 1 0 2.5 
2 4 3 
p 0.0138000008 1 0 0.2 
2 4 3 
p 0.0138000008 1 0 0.2 
2 3 4 
p 0.0138000008 1 0 3.45 
2 1 4 
p 0.0138000008 1 0 3.45 
2 2 3 
p 0.0138000008 1 0 3.45 
2 1 4 
p 0.0138000008 1 0 3.45 
2 2 3 
p 0.0138000008 1 0 3.45 
2 2 4 
p 0.0138000008 1 0 2.5 
2 1 4 
p 0.0138000008 1 0 2.5 
2 2 3 
p 0.0138000008 1 0 2.5 
2 1 4 
p 0.0138000008 1 0 2.5 
2 2 3 
p 0.0138000008 1 0 2.5 
Surfaces 5
1 -0.25 -0.25 0 1 -0 0 0 1 0 -0 0 1 
1 -0.25 -0.25 0 0 0 1 1 0 0 0 1 0 
1 -0.25 -0.25 0 0 -1 0 1 0 0 -0 0 1 
1 2.25 -0.25 0 1 -0 0 0 1 0 -0 0 1 
1 -0.25 3.1999999999999997 0 0 -1 0 1 0 0 -0 0 1 
Triangulations 9
4 2 1 0.0138000008
-0.25 -0.25 0 -0.25 -0.25 -0.2 -0.25 3.2 -0.2 -0.25 3.2 0 0 0 0 -0.2 3.45 -0.2 3.45 0 4 1 2 4 2 3 
4 2 1 0.0138000008
-0.25 -0.25 0 -0.25 -0.25 -0.2 2.25 -0.25 -0.2 2.25 -0.25 0 0 0 0 -0.2 2.5 -0.2 2.5 0 4 1 2 4 2 3 
4 2 1 0.0138000008
-0.25 3.2 0 -0.25 3.2 -0.2 2.25 3.2 -0.2 2.25 3.2 0 0 0 0 -0.2 2.5 -0.2 2.5 0 4 1 2 4 2 3 
4 2 1 0.0138000008
-0.25 -0.25 0 -0.25 3.2 0 2.25 -0.25 0 2.25 3.2 0 0 0 0 3.45 2.5 0 2.5 3.45 4 2 1 4 1 3 
4 2 1 0.0138000008
-0.25 -0.25 0 -0.25 -0.25 -0.2 -0.25 3.2 -0.2 -0.25 3.2 0 0 0 0 -0.2 3.45 -0.2 3.45 0 4 1 2 4 2 3 
4 2 1 0.0138000008
2.25 -0.25 0 2.25 -0.25 -0.2 2.25 3.2 -0.2 2.25 3.2 0 0 0 0 -0.2 3.45 -0.2 3.45 0 4 1 2 4 2 3 
4 2 1 0.0138000008
-0.25 -0.25 0 -0.25 -0.25 -0.2 2.25 -0.25 -0.2 2.25 -0.25 0 0 0 0 -0.2 2.5 -0.2 2.5 0 4 1 2 4 2 3 
4 2 1 0.0138000008
2.25 -0.25 0 2.25 -0.25 -0.2 2.25 3.2 -0.2 2.25 3.2 0 0 0 0 -0.2 3.45 -0.2 3.45 0 4 1 2 4 2 3 
4 2 1 0.0138000008
-0.25 3.2 0 -0.25 3.2 -0.2 2.25 3.2 -0.2 2.25 3.2 0 0 0 0 -0.2 2.5 -0.2 2.5 0 4 1 2 4 2 3 

TShapes 24
Ve
1e-07
-0.25 -0.25 0
0 0

0101101
*
Ed
 1e-07 1 1 0
1  1 0 0 0.2
6  1 1 0
6  2 2 0
0

0101000
+24 0 -24 1 *
Ve
1e-07
-0.25 3.2 0
0 0

0101101
*
Ed
 1e-07 1 1 0
1  2 0 0 0.2
6  3 1 0
6  4 3 0
0

0101000
+22 0 -22 1 *
Ed
 1e-07 1 1 0
1  3 0 0 3.45
2  1 2 0 0 3.45
6  5 4 0
6  6 5 0
6  7 5 3
6  8 1 0
6  9 1 4
0

0101000
+24 0 -22 0 *
Wi

0101100
+23 0 -21 0 -20 0 +20 1 *
Fa
0  1e-07 1 0
2  1
0101000
+19 0 *
Ve
1e-07
2.25 -0.25 0
0 0

0101101
*
Ed
 1e-07 1 1 0
1  4 0 0 0.2
6  10 2 0
6  11 6 0
0

0101000
+17 0 -17 1 *
Ed
 1e-07 1 1 0
1  5 0 0 2.5
2  2 2 0 0 2.5
6  12 4 0
6  13 7 0
6  14 7 3
6  15 2 0
6  16 2 4
0

0101000
+24 0 -17 0 *
Wi

0101100
+23 0 -16 0 -15 0 +15 1 *
Fa
0  1e-07 3 0
2  2
0101000
+14 0 *
Ve
1e-07
2.25 3.2 0
0 0

0101101
*
Ed
 1e-07 1 1 0
1  6 0 0 0.2
6  17 6 0
6  18 3 0
0

0101000
+12 0 -12 1 *
Ed
 1e-07 1 1 0
1  7 0 0 3.45
2  3 2 0 0 3.45
6  19 4 0
6  20 8 0
6  21 8 3
6  22 6 0
6  23 6 4
0

0101000
+17 0 -12 0 *
Wi

0101100
+16 0 -11 0 -10 0 +10 1 *
Fa
0  1e-07 4 0
2  6
0101000
+9 0 *
Ed
 1e-07 1 1 0
1  8 0 0 2.5
2  4 2 0 0 2.5
6  24 4 0
6  25 9 0
6  26 9 3
6  27 3 0
6  28 3 4
0

0101000
+22 0 -12 0 *
Wi

0101100
+21 0 -11 0 -7 0 +7 1 *
Fa
0  1e-07 5 0
2  3
0101000
+6 0 *
Wi

0101100
-20 0 +15 0 +10 0 -7 0 *
Fa
0  1e-07 2 0
2  4
0111000
+4 0 *
Sh

0101100
-18 0 +13 0 +8 0 -5 0 +3 0 -3 1 *
So

1100000
+2 0 *

+1 0 