DBRep_DrawableShape

CASCADE Topology V1, (c) Matra-Datavision
Locations 16
1
              1               0               0               0 
              0               1               0               0 
              0               0               1               2 
1
              1               0               0               0 
              0               1               0               0 
              0               0               1               1 
2  2 -1 0
1
              1               0               0               0 
              0               1               0               0 
              0               0               1               1 
2  4 -1 0
1
              1               0               0               0 
              0               1               0               0 
              0               0               1               1 
2  6 -1 0
1
              1               0               0               0 
              0               1               0               0 
              0               0               1               1 
2  8 -1 0
1
              1               0               0               0 
              0               1               0               0 
              0               0               1               1 
2  10 -1 0
1
              1               0               0               0 
              0               1               0               0 
              0               0               1               2 
2  12 -1 0
2  1 -1 0
1
              1               0               0               0 
              0               1               0               0 
              0               0               1               2 
2  15 -1 0
Curve2ds 0
Curves 12
1 0.29999999999999999 0.29999999999999999 0 0 0 1 
1 0.29999999999999999 -0.5 0 0 0 1 
1 0.30000000000000004 0 0 -0 1 0 
1 0.5 -0.5 0 0 0 1 
1 0.40000000000000002 -0.5 0 1 0 -0 
1 0.5 0.5 0 0 0 1 
8 0 1
1 0.5 -0.5 0 0 1 0 
1 -0.5 0.5 0 0 0 1 
8 0 1
1 0.5 0.5 0 -1 0 0 
1 -0.5 0.29999999999999999 0 0 0 1 
1 -0.5 0.40000000000000002 0 -0 1 0 
1 0 0.30000000000000004 0 1 0 -0 
Polygon3D 0
PolygonOnTriangulations 114
2 1 2 
p 0.0080000008 1 0 2 
2 4 3 
p 0.0080000008 1 0 2 
2 3 4 
p 0.0080000008 1 0 2 
2 1 2 
p 0.0080000008 1 0 2 
2 1 2 
p 0.0040000008 1 -0.5 0.3 
2 4 2 
p 0.0040000008 1 -0.5 0.3 
2 3 1 
p 0.0040000008 1 -0.5 0.3 
2 4 2 
p 0.0040000008 1 -0.5 0.3 
2 3 1 
p 0.0040000008 1 -0.5 0.3 
2 4 2 
p 0.0040000008 1 -0.5 0.3 
2 3 1 
p 0.0040000008 1 -0.5 0.3 
2 4 2 
p 0.0040000008 1 -0.5 0.3 
2 3 1 
p 0.0040000008 1 -0.5 0.3 
2 4 2 
p 0.0040000008 1 -0.5 0.3 
2 3 1 
p 0.0040000008 1 -0.5 0.3 
2 3 1 
p 0.0040000008 1 -0.5 0.3 
2 4 2 
p 0.0080000008 1 -0.5 0.3 
2 3 1 
p 0.0040000008 1 -0.5 0.3 
2 4 2 
p 0.0080000008 1 -0.5 0.3 
2 3 1 
p 0.0040000008 1 -0.5 0.3 
2 4 2 
p 0.0080000008 1 -0.5 0.3 
2 4 3 
p 0.0080000008 1 0 2 
2 1 2 
p 0.0080000008 1 0 2 
2 1 3 
p 0.0040000008 1 -0.1 0.1 
2 1 3 
p 0.0040000008 1 -0.1 0.1 
2 2 4 
p 0.0040000008 1 -0.1 0.1 
2 1 3 
p 0.0040000008 1 -0.1 0.1 
2 2 4 
p 0.0040000008 1 -0.1 0.1 
2 1 3 
p 0.0040000008 1 -0.1 0.1 
2 2 4 
p 0.0040000008 1 -0.1 0.1 
2 2 4 
p 0.0040000008 1 -0.1 0.1 
2 1 3 
p 0.0040000008 1 -0.1 0.1 
2 1 3 
p 0.0040000008 1 -0.1 0.1 
2 2 4 
p 0.0040000008 1 -0.1 0.1 
2 1 4 
p 0.0040000008 1 -0.1 0.1 
2 2 3 
p 0.0080000008 1 -0.1 0.1 
2 1 4 
p 0.0040000008 1 -0.1 0.1 
2 2 3 
p 0.0080000008 1 -0.1 0.1 
2 1 4 
p 0.0040000008 1 -0.1 0.1 
2 2 3 
p 0.0080000008 1 -0.1 0.1 
2 4 3 
p 0.0080000008 1 0 2 
2 1 2 
p 0.0080000008 1 0 2 
2 3 4 
p 0.0040000008 1 0 1 
2 1 3 
p 0.0040000008 1 0 1 
2 2 4 
p 0.0040000008 1 0 1 
2 1 3 
p 0.0040000008 1 0 1 
2 2 4 
p 0.0040000008 1 0 1 
2 1 3 
p 0.0040000008 1 0 1 
2 2 4 
p 0.0040000008 1 0 1 
2 2 4 
p 0.0040000008 1 0 1 
2 1 3 
p 0.0040000008 1 0 1 
2 1 3 
p 0.0040000008 1 0 1 
2 2 4 
p 0.0040000008 1 0 1 
2 1 4 
p 0.0040000008 1 0 1 
2 2 3 
p 0.0080000008 1 0 1 
2 1 4 
p 0.0040000008 1 0 1 
2 2 3 
p 0.0080000008 1 0 1 
2 1 4 
p 0.0040000008 1 0 1 
2 2 3 
p 0.0080000008 1 0 1 
2 4 3 
p 0.0080000008 1 0 2 
2 1 2 
p 0.0080000008 1 0 2 
2 4 5 
p 0.0040000008 1 0 1 
2 2 4 
p 0.0040000008 1 0 1 
2 1 3 
p 0.0040000008 1 0 1 
2 2 4 
p 0.0040000008 1 0 1 
2 1 3 
p 0.0040000008 1 0 1 
2 2 4 
p 0.0040000008 1 0 1 
2 1 3 
p 0.0040000008 1 0 1 
2 2 4 
p 0.0040000008 1 0 1 
2 1 3 
p 0.0040000008 1 0 1 
2 1 3 
p 0.0040000008 1 0 1 
2 2 4 
p 0.0040000008 1 0 1 
2 1 4 
p 0.0040000008 1 0 1 
2 2 3 
p 0.0080000008 1 0 1 
2 1 4 
p 0.0040000008 1 0 1 
2 2 3 
p 0.0080000008 1 0 1 
2 1 4 
p 0.0040000008 1 0 1 
2 2 3 
p 0.0080000008 1 0 1 
2 3 4 
p 0.0080000008 1 0 2 
2 1 2 
p 0.0080000008 1 0 2 
2 6 5 
p 0.0040000008 1 -0.1 0.1 
2 3 1 
p 0.0040000008 1 -0.1 0.1 
2 4 2 
p 0.0040000008 1 -0.1 0.1 
2 3 1 
p 0.0040000008 1 -0.1 0.1 
2 4 2 
p 0.0040000008 1 -0.1 0.1 
2 3 1 
p 0.0040000008 1 -0.1 0.1 
2 4 2 
p 0.0040000008 1 -0.1 0.1 
2 3 1 
p 0.0040000008 1 -0.1 0.1 
2 4 2 
p 0.0040000008 1 -0.1 0.1 
2 3 1 
p 0.0040000008 1 -0.1 0.1 
2 4 2 
p 0.0040000008 1 -0.1 0.1 
2 3 1 
p 0.0040000008 1 -0.1 0.1 
2 4 2 
p 0.0080000008 1 -0.1 0.1 
2 3 1 
p 0.0040000008 1 -0.1 0.1 
2 4 2 
p 0.0080000008 1 -0.1 0.1 
2 3 1 
p 0.0040000008 1 -0.1 0.1 
2 4 2 
p 0.0080000008 1 -0.1 0.1 
2 6 2 
p 0.0040000008 1 -0.5 0.3 
2 2 4 
p 0.0040000008 1 -0.5 0.3 
2 1 3 
p 0.0040000008 1 -0.5 0.3 
2 2 4 
p 0.0040000008 1 -0.5 0.3 
2 1 3 
p 0.0040000008 1 -0.5 0.3 
2 2 4 
p 0.0040000008 1 -0.5 0.3 
2 1 3 
p 0.0040000008 1 -0.5 0.3 
2 2 4 
p 0.0040000008 1 -0.5 0.3 
2 1 3 
p 0.0040000008 1 -0.5 0.3 
2 2 4 
p 0.0040000008 1 -0.5 0.3 
2 1 3 
p 0.0040000008 1 -0.5 0.3 
2 1 4 
p 0.0040000008 1 -0.5 0.3 
2 2 3 
p 0.0080000008 1 -0.5 0.3 
2 1 4 
p 0.0040000008 1 -0.5 0.3 
2 2 3 
p 0.0080000008 1 -0.5 0.3 
2 1 4 
p 0.0040000008 1 -0.5 0.3 
2 2 3 
p 0.0080000008 1 -0.5 0.3 
Surfaces 7
1 0.30000000000000004 -0.5 0 -1 -0 0 -0 1 0 -0 0 -1 
1 0.30000000000000004 -0.5 0 -0 1 0 1 0 -0 -0 0 -1 
1 0.5 -0.5 0 -1 0 0 0 1 0 0 0 -1 
1 0.5 0.5 0 0 -1 0 -1 0 0 -0 -0 -1 
1 -0.5 0.30000000000000004 0 -1 -0 0 -0 1 0 -0 0 -1 
1 -0.5 0.30000000000000004 0 -0 1 0 1 0 -0 -0 0 -1 
1 0.40000000000000002 0 0 0 0 1 1 0 -0 -0 1 0 
Triangulations 49
4 2 1 0.0080000008
0.3 0.3 0 0.3 0.3 2 0.3 -0.5 0 0.3 -0.5 2 0.8 0 0.8 -2 0 0 0 -2 1 3 4 1 4 2 
4 2 1 0.0080000008
-0.5 0.3 0 -0.5 0.3 2 0.3 0.3 2 0.3 0.3 0 0 0 0 -2 0.8 -2 0.8 0 4 1 2 4 2 3 
4 2 1 0.0080000008
0.3 -0.5 0 0.3 -0.5 2 0.5 -0.5 2 0.5 -0.5 0 -2.77555756156289e-17 0 -2.77555756156289e-17 -2 0.2 -2 0.2 0 4 1 2 4 2 3 
6 4 1 1.38777878078145e-17
0.3 -0.5 0 0.3 0.3 0 0.5 -0.5 0 0.5 0.5 0 -0.5 0.5 0 -0.5 0.3 0 -0.1 -0.5 -0.1 0.3 0.1 -0.5 0.1 0.5 -0.9 0.5 -0.9 0.3 2 1 3 2 5 6 4 5 2 4 2 3 
4 2 1 0
0.3 0.3 0 0.3 0.3 1 0.3 -0.5 0 0.3 -0.5 1 0.8 0 0.8 -1 0 0 0 -1 1 3 4 1 4 2 
4 2 1 0
0.3 0.3 0 0.3 0.3 1 0.3 -0.5 0 0.3 -0.5 1 0.8 0 0.8 -1 0 0 0 -1 1 3 4 1 4 2 
4 2 1 0
0.3 0.3 0 0.3 0.3 1 0.3 -0.5 0 0.3 -0.5 1 0.8 0 0.8 -1 0 0 0 -1 1 3 4 1 4 2 
4 2 1 0
0.3 0.3 0 0.3 0.3 1 0.3 -0.5 0 0.3 -0.5 1 0.8 0 0.8 -1 0 0 0 -1 1 3 4 1 4 2 
4 2 1 0
0.3 0.3 0 0.3 0.3 1 0.3 -0.5 0 0.3 -0.5 1 0.8 0 0.8 -1 0 0 0 -1 1 3 4 1 4 2 
4 2 1 0.0080000008
0.3 0.3 0 0.3 0.3 2 0.3 -0.5 0 0.3 -0.5 2 0.8 0 0.8 -2 0 0 0 -2 1 3 4 1 4 2 
4 2 1 0.0080000008
0.3 0.3 0 0.3 0.3 2 0.3 -0.5 0 0.3 -0.5 2 0.8 0 0.8 -2 0 0 0 -2 1 3 4 1 4 2 
4 2 1 0.0080000008
0.5 -0.5 0 0.5 -0.5 2 0.5 0.5 2 0.5 0.5 0 0 0 0 -2 1 -2 1 0 4 1 2 4 2 3 
4 2 1 0
0.3 -0.5 0 0.3 -0.5 1 0.5 -0.5 0 0.5 -0.5 1 0 0 0 -1 0.2 0 0.2 -1 3 1 2 3 2 4 
4 2 1 0
0.3 -0.5 0 0.3 -0.5 1 0.5 -0.5 0 0.5 -0.5 1 0 0 0 -1 0.2 0 0.2 -1 3 1 2 3 2 4 
4 2 1 0
0.3 -0.5 0 0.3 -0.5 1 0.5 -0.5 0 0.5 -0.5 1 0 0 0 -1 0.2 0 0.2 -1 3 1 2 3 2 4 
4 2 1 0
0.3 -0.5 0 0.3 -0.5 1 0.5 -0.5 0 0.5 -0.5 1 0 0 0 -1 0.2 0 0.2 -1 3 1 2 3 2 4 
4 2 1 0
0.3 -0.5 0 0.3 -0.5 1 0.5 -0.5 0 0.5 -0.5 1 0 0 0 -1 0.2 0 0.2 -1 3 1 2 3 2 4 
4 2 1 0.0080000008
0.3 -0.5 0 0.3 -0.5 2 0.5 -0.5 2 0.5 -0.5 0 -2.77555756156289e-17 0 -2.77555756156289e-17 -2 0.2 -2 0.2 0 4 1 2 4 2 3 
4 2 1 0.0080000008
0.3 -0.5 0 0.3 -0.5 2 0.5 -0.5 2 0.5 -0.5 0 -2.77555756156289e-17 0 -2.77555756156289e-17 -2 0.2 -2 0.2 0 4 1 2 4 2 3 
4 2 1 0.0080000008
0.5 0.5 0 0.5 0.5 2 -0.5 0.5 2 -0.5 0.5 0 0 0 0 -2 1 -2 1 0 4 1 2 4 2 3 
4 2 1 0
0.5 -0.5 0 0.5 -0.5 1 0.5 0.5 0 0.5 0.5 1 0 0 0 -1 1 0 1 -1 3 1 2 3 2 4 
4 2 1 0
0.5 -0.5 0 0.5 -0.5 1 0.5 0.5 0 0.5 0.5 1 0 0 0 -1 1 0 1 -1 3 1 2 3 2 4 
4 2 1 0
0.5 -0.5 0 0.5 -0.5 1 0.5 0.5 0 0.5 0.5 1 0 0 0 -1 1 0 1 -1 3 1 2 3 2 4 
4 2 1 0
0.5 -0.5 0 0.5 -0.5 1 0.5 0.5 0 0.5 0.5 1 0 0 0 -1 1 0 1 -1 3 1 2 3 2 4 
4 2 1 0
0.5 -0.5 0 0.5 -0.5 1 0.5 0.5 0 0.5 0.5 1 0 0 0 -1 1 0 1 -1 3 1 2 3 2 4 
4 2 1 0.0080000008
0.5 -0.5 0 0.5 -0.5 2 0.5 0.5 2 0.5 0.5 0 0 0 0 -2 1 -2 1 0 4 1 2 4 2 3 
4 2 1 0.0080000008
0.5 -0.5 0 0.5 -0.5 2 0.5 0.5 2 0.5 0.5 0 0 0 0 -2 1 -2 1 0 4 1 2 4 2 3 
4 2 1 0.0080000008
-0.5 0.5 0 -0.5 0.5 2 -0.5 0.3 0 -0.5 0.3 2 0.2 0 0.2 -2 -5.55111512312578e-17 0 -2.77555756156289e-17 -2 1 3 4 1 4 2 
4 2 1 0
0.5 0.5 0 0.5 0.5 1 -0.5 0.5 0 -0.5 0.5 1 0 0 0 -1 1 0 1 -1 3 1 2 3 2 4 
4 2 1 0
0.5 0.5 0 0.5 0.5 1 -0.5 0.5 0 -0.5 0.5 1 0 0 0 -1 1 0 1 -1 3 1 2 3 2 4 
4 2 1 0
0.5 0.5 0 0.5 0.5 1 -0.5 0.5 0 -0.5 0.5 1 0 0 0 -1 1 0 1 -1 3 1 2 3 2 4 
4 2 1 0
0.5 0.5 0 0.5 0.5 1 -0.5 0.5 0 -0.5 0.5 1 0 0 0 -1 1 0 1 -1 3 1 2 3 2 4 
4 2 1 0
0.5 0.5 0 0.5 0.5 1 -0.5 0.5 0 -0.5 0.5 1 0 0 0 -1 1 0 1 -1 3 1 2 3 2 4 
4 2 1 0.0080000008
0.5 0.5 0 0.5 0.5 2 -0.5 0.5 2 -0.5 0.5 0 0 0 0 -2 1 -2 1 0 4 1 2 4 2 3 
4 2 1 0.0080000008
0.5 0.5 0 0.5 0.5 2 -0.5 0.5 2 -0.5 0.5 0 0 0 0 -2 1 -2 1 0 4 1 2 4 2 3 
4 2 1 0
-0.5 0.5 0 -0.5 0.5 1 -0.5 0.3 0 -0.5 0.3 1 0.2 0 0.2 -1 0 0 0 -1 1 3 4 1 4 2 
4 2 1 0
-0.5 0.5 0 -0.5 0.5 1 -0.5 0.3 0 -0.5 0.3 1 0.2 0 0.2 -1 0 0 0 -1 1 3 4 1 4 2 
4 2 1 0
-0.5 0.5 0 -0.5 0.5 1 -0.5 0.3 0 -0.5 0.3 1 0.2 0 0.2 -1 0 0 0 -1 1 3 4 1 4 2 
4 2 1 0
-0.5 0.5 0 -0.5 0.5 1 -0.5 0.3 0 -0.5 0.3 1 0.2 0 0.2 -1 0 0 0 -1 1 3 4 1 4 2 
4 2 1 0
-0.5 0.5 0 -0.5 0.5 1 -0.5 0.3 0 -0.5 0.3 1 0.2 0 0.2 -1 0 0 0 -1 1 3 4 1 4 2 
4 2 1 0.0080000008
-0.5 0.5 0 -0.5 0.5 2 -0.5 0.3 0 -0.5 0.3 2 0.2 0 0.2 -2 -5.55111512312578e-17 0 -2.77555756156289e-17 -2 1 3 4 1 4 2 
4 2 1 0.0080000008
-0.5 0.5 0 -0.5 0.5 2 -0.5 0.3 0 -0.5 0.3 2 0.2 0 0.2 -2 -5.55111512312578e-17 0 -2.77555756156289e-17 -2 1 3 4 1 4 2 
4 2 1 0
-0.5 0.3 0 -0.5 0.3 1 0.3 0.3 0 0.3 0.3 1 0 0 0 -1 0.8 0 0.8 -1 3 1 2 3 2 4 
4 2 1 0
-0.5 0.3 0 -0.5 0.3 1 0.3 0.3 0 0.3 0.3 1 0 0 0 -1 0.8 0 0.8 -1 3 1 2 3 2 4 
4 2 1 0
-0.5 0.3 0 -0.5 0.3 1 0.3 0.3 0 0.3 0.3 1 0 0 0 -1 0.8 0 0.8 -1 3 1 2 3 2 4 
4 2 1 0
-0.5 0.3 0 -0.5 0.3 1 0.3 0.3 0 0.3 0.3 1 0 0 0 -1 0.8 0 0.8 -1 3 1 2 3 2 4 
4 2 1 0
-0.5 0.3 0 -0.5 0.3 1 0.3 0.3 0 0.3 0.3 1 0 0 0 -1 0.8 0 0.8 -1 3 1 2 3 2 4 
4 2 1 0.0080000008
-0.5 0.3 0 -0.5 0.3 2 0.3 0.3 2 0.3 0.3 0 0 0 0 -2 0.8 -2 0.8 0 4 1 2 4 2 3 
4 2 1 0.0080000008
-0.5 0.3 0 -0.5 0.3 2 0.3 0.3 2 0.3 0.3 0 0 0 0 -2 0.8 -2 0.8 0 4 1 2 4 2 3 

TShapes 34
Ve
1e-07
0.3 0.3 0
0 0

0101101
*
Ed
 1e-07 1 1 0
1  1 0 0 2
6  1 1 0
6  2 2 0
0

0101000
+34 0 -34 1 *
Ve
1e-07
0.3 -0.5 0
0 0

0101101
*
Ed
 1e-07 1 1 0
1  2 0 0 2
6  3 1 0
6  4 3 0
0

0101000
+32 0 -32 1 *
Ed
 1e-07 1 1 0
1  3 0 -0.5 0.3
6  5 4 0
6  6 5 3
6  7 5 0
6  8 6 5
6  9 6 0
6  10 7 7
6  11 7 0
6  12 8 9
6  13 8 0
6  14 9 11
6  15 9 0
6  16 10 0
6  17 10 13
6  18 1 0
6  19 1 14
6  20 11 0
6  21 11 16
0

0101000
-34 0 +32 0 *
Wi

0101100
-33 0 +31 0 -30 0 +30 1 *
Fa
0  1e-07 1 0
2  1
0101000
+29 0 *
Ve
1e-07
0.5 -0.5 0
0 0

0101101
*
Ed
 1e-07 1 1 0
1  4 0 0 2
6  22 3 0
6  23 12 0
0

0101000
+27 0 -27 1 *
Ed
 1e-07 1 1 0
1  5 0 -0.1 0.1
6  24 4 0
6  25 13 0
6  26 13 3
6  27 14 0
6  28 14 5
6  29 15 0
6  30 15 7
6  31 16 9
6  32 16 0
6  33 17 0
6  34 17 11
6  35 18 0
6  36 18 13
6  37 3 0
6  38 3 14
6  39 19 0
6  40 19 16
0

0101000
+32 0 -27 0 *
Wi

0101100
+31 0 -26 0 -25 0 +25 1 *
Fa
0  1e-07 2 0
2  3
0101000
+24 0 *
Ve
1e-07
0.5 0.5 0
0 0

0101101
*
Ed
 1e-07 1 1 0
1  6 0 0 2
6  41 12 0
6  42 20 0
0

0101000
+22 0 -22 1 *
Ed
 1e-07 1 1 0
1  7 0 0 1
6  43 4 0
6  44 21 0
6  45 21 3
6  46 22 0
6  47 22 5
6  48 23 0
6  49 23 7
6  50 24 9
6  51 24 0
6  52 25 0
6  53 25 11
6  54 26 0
6  55 26 13
6  56 12 0
6  57 12 14
6  58 27 0
6  59 27 16
0

0101000
+27 0 -22 0 *
Wi

0101100
+26 0 -21 0 -20 0 +20 1 *
Fa
0  1e-07 3 0
2  12
0101000
+19 0 *
Ve
1e-07
-0.5 0.5 0
0 0

0101101
*
Ed
 1e-07 1 1 0
1  8 0 0 2
6  60 20 0
6  61 28 0
0

0101000
+17 0 -17 1 *
Ed
 1e-07 1 1 0
1  9 0 0 1
6  62 4 0
6  63 29 3
6  64 29 0
6  65 30 5
6  66 30 0
6  67 31 7
6  68 31 0
6  69 32 9
6  70 32 0
6  71 33 0
6  72 33 11
6  73 34 0
6  74 34 13
6  75 20 0
6  76 20 14
6  77 35 0
6  78 35 16
0

0101000
+22 0 -17 0 *
Wi

0101100
+21 0 -16 0 -15 0 +15 1 *
Fa
0  1e-07 4 0
2  20
0101000
+14 0 *
Ve
1e-07
-0.5 0.3 0
0 0

0101101
*
Ed
 1e-07 1 1 0
1  10 0 0 2
6  79 28 0
6  80 2 0
0

0101000
+12 0 -12 1 *
Ed
 1e-07 1 1 0
1  11 0 -0.1 0.1
6  81 4 0
6  82 36 0
6  83 36 3
6  84 37 0
6  85 37 5
6  86 38 0
6  87 38 7
6  88 39 0
6  89 39 9
6  90 40 0
6  91 40 11
6  92 41 0
6  93 41 13
6  94 28 0
6  95 28 14
6  96 42 0
6  97 42 16
0

0101000
-17 0 +12 0 *
Wi

0101100
-16 0 +11 0 -10 0 +10 1 *
Fa
0  1e-07 5 0
2  28
0101000
+9 0 *
Ed
 1e-07 1 1 0
1  12 0 -0.5 0.3
6  98 4 0
6  99 43 3
6  100 43 0
6  101 44 5
6  102 44 0
6  103 45 7
6  104 45 0
6  105 46 9
6  106 46 0
6  107 47 11
6  108 47 0
6  109 48 0
6  110 48 13
6  111 2 0
6  112 2 14
6  113 49 0
6  114 49 16
0

0101000
+12 0 -34 0 *
Wi

0101100
+11 0 -33 0 -7 0 +7 1 *
Fa
0  1e-07 6 0
2  2
0101000
+6 0 *
Wi

0101100
-30 0 +25 0 +20 0 +15 0 -10 0 +7 0 *
Fa
0  1e-07 7 0
2  4
0111000
+4 0 *
Sh

0101100
-28 0 +23 0 +18 0 +13 0 -8 0 +5 0 +3 0 -3 1 *
So

1100000
-2 0 *

+1 0 