DBRep_DrawableShape

CASCADE Topology V1, (c) Matra-Datavision
Locations 6
1
              1               0               0               0 
              0               1               0               0 
              0               0               1            -0.1 
1
              1               0               0               0 
              0               1               0               0 
              0               0               1            -0.1 
2  2 -1 0
2  1 -1 0
1
              1               0               0               0 
              0               1               0               0 
              0               0               1            -0.1 
2  5 -1 0
Curve2ds 4
1 -1 0 0 1 
1 0 -1 1 0 
1 1 0 0 1 
1 0 1 1 0 
Curves 8
1 -1 -1 0 0 0 -1 
1 -1 1 0 0 0 -1 
1 -1 0 0 -0 1 0 
1 1 -1 0 0 0 -1 
1 0 -1 0 1 0 -0 
1 1 1 0 0 0 -1 
1 1 0 0 -0 1 0 
1 0 1 0 1 0 -0 
Polygon3D 0
PolygonOnTriangulations 36
2 1 2 
p 0.0080000008 1 0 0.1 
2 1 2 
p 0.0080000008 1 0 0.1 
2 4 3 
p 0.0080000008 1 0 0.1 
2 1 2 
p 0.0080000008 1 0 0.1 
2 1 2 
p 0.0080000008 1 -1 1 
2 1 4 
p 0.0080000008 1 -1 1 
2 2 3 
p 0.0080000008 1 -1 1 
2 1 4 
p 0.0080000008 1 -1 1 
2 2 3 
p 0.0080000008 1 -1 1 
2 1 4 
p 0.0080000008 1 -1 1 
2 2 3 
p 0.0080000008 1 -1 1 
2 4 3 
p 0.0080000008 1 0 0.1 
2 1 2 
p 0.0080000008 1 0 0.1 
2 1 3 
p 0.0080000008 1 -1 1 
2 1 4 
p 0.0080000008 1 -1 1 
2 2 3 
p 0.0080000008 1 -1 1 
2 1 4 
p 0.0080000008 1 -1 1 
2 2 3 
p 0.0080000008 1 -1 1 
2 1 4 
p 0.0080000008 1 -1 1 
2 2 3 
p 0.0080000008 1 -1 1 
2 4 3 
p 0.0080000008 1 0 0.1 
2 4 3 
p 0.0080000008 1 0 0.1 
2 3 4 
p 0.0080000008 1 -1 1 
2 1 4 
p 0.0080000008 1 -1 1 
2 2 3 
p 0.0080000008 1 -1 1 
2 1 4 
p 0.0080000008 1 -1 1 
2 2 3 
p 0.0080000008 1 -1 1 
2 1 4 
p 0.0080000008 1 -1 1 
2 2 3 
p 0.0080000008 1 -1 1 
2 2 4 
p 0.0080000008 1 -1 1 
2 1 4 
p 0.0080000008 1 -1 1 
2 2 3 
p 0.0080000008 1 -1 1 
2 1 4 
p 0.0080000008 1 -1 1 
2 2 3 
p 0.0080000008 1 -1 1 
2 1 4 
p 0.0080000008 1 -1 1 
2 2 3 
p 0.0080000008 1 -1 1 
Surfaces 5
1 -1 -1 0 1 0 0 -0 1 0 0 -0 1 
1 0 0 0 0 0 1 1 0 -0 -0 1 0 
1 -1 -1 0 0 -1 0 1 0 0 -0 0 1 
1 1 -1 0 1 0 0 -0 1 0 0 -0 1 
1 -1 1 0 0 -1 0 1 0 0 -0 0 1 
Triangulations 13
4 2 1 0.0080000008
-1 -1 0 -1 -1 -0.1 -1 1 -0.1 -1 1 0 0 0 0 -0.1 2 -0.1 2 0 4 1 2 4 2 3 
4 2 1 0.0080000008
-1 -1 0 -1 -1 -0.1 1 -1 -0.1 1 -1 0 0 0 0 -0.1 2 -0.1 2 0 4 1 2 4 2 3 
4 2 1 0.0080000008
-1 1 0 -1 1 -0.1 1 1 -0.1 1 1 0 0 0 0 -0.1 2 -0.1 2 0 4 1 2 4 2 3 
4 2 1 0.0080000008
-1 -1 0 -1 1 0 1 -1 0 1 1 0 -1 -1 -1 1 1 -1 1 1 4 2 1 4 1 3 
4 2 1 0.0080000008
-1 -1 0 -1 -1 -0.1 -1 1 -0.1 -1 1 0 0 0 0 -0.1 2 -0.1 2 0 4 1 2 4 2 3 
4 2 1 0.0080000008
-1 -1 0 -1 -1 -0.1 -1 1 -0.1 -1 1 0 0 0 0 -0.1 2 -0.1 2 0 4 1 2 4 2 3 
4 2 1 0.0080000008
1 -1 0 1 -1 -0.1 1 1 -0.1 1 1 0 0 0 0 -0.1 2 -0.1 2 0 4 1 2 4 2 3 
4 2 1 0.0080000008
-1 -1 0 -1 -1 -0.1 1 -1 -0.1 1 -1 0 0 0 0 -0.1 2 -0.1 2 0 4 1 2 4 2 3 
4 2 1 0.0080000008
-1 -1 0 -1 -1 -0.1 1 -1 -0.1 1 -1 0 0 0 0 -0.1 2 -0.1 2 0 4 1 2 4 2 3 
4 2 1 0.0080000008
1 -1 0 1 -1 -0.1 1 1 -0.1 1 1 0 0 0 0 -0.1 2 -0.1 2 0 4 1 2 4 2 3 
4 2 1 0.0080000008
1 -1 0 1 -1 -0.1 1 1 -0.1 1 1 0 0 0 0 -0.1 2 -0.1 2 0 4 1 2 4 2 3 
4 2 1 0.0080000008
-1 1 0 -1 1 -0.1 1 1 -0.1 1 1 0 0 0 0 -0.1 2 -0.1 2 0 4 1 2 4 2 3 
4 2 1 0.0080000008
-1 1 0 -1 1 -0.1 1 1 -0.1 1 1 0 0 0 0 -0.1 2 -0.1 2 0 4 1 2 4 2 3 

TShapes 24
Ve
1e-07
-1 -1 0
0 0

0101101
*
Ed
 1e-07 1 1 0
1  1 0 0 0.1
6  1 1 0
6  2 2 0
0

0101000
+24 0 -24 1 *
Ve
1e-07
-1 1 0
0 0

0101101
*
Ed
 1e-07 1 1 0
1  2 0 0 0.1
6  3 1 0
6  4 3 0
0

0101000
+22 0 -22 1 *
Ed
 1e-07 1 1 0
1  3 0 -1 1
2  1 2 0 -1 1
6  5 4 0
6  6 5 0
6  7 5 3
6  8 1 0
6  9 1 4
6  10 6 0
6  11 6 6
0

0101000
+24 0 -22 0 *
Wi

0101100
+23 0 -21 0 -20 0 +20 1 *
Fa
0  1e-07 1 0
2  1
0101000
+19 0 *
Ve
1e-07
1 -1 0
0 0

0101101
*
Ed
 1e-07 1 1 0
1  4 0 0 0.1
6  12 2 0
6  13 7 0
0

0101000
+17 0 -17 1 *
Ed
 1e-07 1 1 0
1  5 0 -1 1
2  2 2 0 -1 1
6  14 4 0
6  15 8 0
6  16 8 3
6  17 2 0
6  18 2 4
6  19 9 0
6  20 9 6
0

0101000
+24 0 -17 0 *
Wi

0101100
+23 0 -16 0 -15 0 +15 1 *
Fa
0  1e-07 3 0
2  2
0101000
+14 0 *
Ve
1e-07
1 1 0
0 0

0101101
*
Ed
 1e-07 1 1 0
1  6 0 0 0.1
6  21 7 0
6  22 3 0
0

0101000
+12 0 -12 1 *
Ed
 1e-07 1 1 0
1  7 0 -1 1
2  3 2 0 -1 1
6  23 4 0
6  24 10 0
6  25 10 3
6  26 7 0
6  27 7 4
6  28 11 0
6  29 11 6
0

0101000
+17 0 -12 0 *
Wi

0101100
+16 0 -11 0 -10 0 +10 1 *
Fa
0  1e-07 4 0
2  7
0101000
+9 0 *
Ed
 1e-07 1 1 0
1  8 0 -1 1
2  4 2 0 -1 1
6  30 4 0
6  31 12 0
6  32 12 3
6  33 3 0
6  34 3 4
6  35 13 0
6  36 13 6
0

0101000
+22 0 -12 0 *
Wi

0101100
+21 0 -11 0 -7 0 +7 1 *
Fa
0  1e-07 5 0
2  3
0101000
+6 0 *
Wi

0101100
-20 0 +15 0 +10 0 -7 0 *
Fa
0  1e-07 2 0
2  4
0111000
+4 0 *
Sh

0101100
-18 0 +13 0 +8 0 -5 0 +3 0 -3 1 *
So

1100000
+2 0 *

+1 0 