DBRep_DrawableShape

CASCADE Topology V1, (c) Matra-Datavision
Locations 16
1
0.707106781186548               0 0.707106781186547 -0.0606599999999999 
              0               1               0               0 
-0.707106781186547               0 0.707106781186548         1.26066 
2  1 -1 0
1
              1               0               0               0 
              0               1               0            -0.1 
              0               0               1               0 
1
              1               0               0               0 
              0               1               0             1.2 
              0               0               1               0 
2  3 1 4 1 0
2  3 -1 0
1
              1               0               0               0 
              0               1               0               1 
              0               0               1               0 
2  7 -1 3 -1 0
1
              1               0               0               0 
              0               1               0             1.2 
              0               0               1               0 
2  9 -1 3 -1 0
2  4 -1 3 -1 0
1
              1               0               0               0 
              0               1               0             1.2 
              0               0               1               0 
2  12 -1 3 -1 0
1
0.707106781186548               0 0.707106781186547 -0.0606599999999999 
              0               1               0               0 
-0.707106781186547               0 0.707106781186548         1.26066 
2  14 1 3 1 0
2  14 1 3 1 4 1 0
Curve2ds 24
1 0 0 1 0 
1 0 0 1 0 
1 1.5 0 0 -1 
1 0 0 0 1 
1 0 -1 1 0 
1 0 0 1 0 
1 0 0 0 -1 
1 0 0 0 1 
1 0 0 1 0 
1 0 1.5 1 0 
1 1.5 0 0 -1 
1 1.5 0 0 1 
1 0 -1 1 0 
1 0 1.5 1 0 
1 0 0 0 -1 
1 1.5 0 0 1 
1 0 0 0 1 
1 0 0 1 0 
1 1.5 0 0 1 
1 0 0 1 0 
1 0 0 0 1 
1 0 1 1 0 
1 1.5 0 0 1 
1 0 1 1 0 
Curves 32
1 0 0 0 0 0 1 
1 0 0 1.5 -0 1 0 
1 0 1 0 0 0 1 
1 0 0 0 -0 1 0 
1 1.5 0 0 0 0 1 
1 1.5 0 1.5 0 1 0 
1 1.5 1 0 0 0 1 
1 1.5 0 0 -0 1 0 
1 0 0 0 1 0 -0 
1 0 0 1.5 1 0 -0 
1 0 1 0 1 0 -0 
1 0 1 1.5 1 0 -0 
1 1.7424622920256962 -0.10000000000000001 0.94246194846605469 0 1 0 
1 1.7424622920256962 -0.10000000000000001 -9.9999999999988987e-05 0 1 0 
1 1.7424622920256962 0 0.94246194846605469 0 0 -1 
1 1.0000001717798221 -0.10000000000000001 -9.9999999999988987e-05 0 1 0 
1 1.7424622920256962 0 -9.9999999999988987e-05 -1 0 0 
1 1.0000001717798221 -0.10000000000000001 0.19999982822017937 0 1 0 
1 1.0000001717798221 0 -9.9999999999988987e-05 0 0 1 
1 1.0000001717798221 0 0.19999982822017937 0.70710678118654702 0 0.70710678118654824 
1 0.25753805153394804 -0.10000000000000001 0.94246194846605469 -0 1 -0 
1 0.25753805153394804 -0.10000000000000001 -9.9999999999988987e-05 -0 1 -0 
1 0.25753805153394804 0 0.94246194846605469 -0 -0 -1 
1 0.25753805153394804 0 0.94246194846605469 -0 -0 -1 
1 1.0000001717798221 -0.10000000000000001 -9.9999999999988987e-05 -0 1 -0 
1 0.25753805153394804 0 -9.9999999999988987e-05 1 -0 -0 
1 0.25753805153394804 0 -9.9999999999988987e-05 1 -0 -0 
1 1.0000001717798221 -0.10000000000000001 0.19999982822017937 -0 1 -0 
1 1.0000001717798221 0 -9.9999999999988987e-05 -0 -0 1 
1 1.0000001717798221 0 -9.9999999999988987e-05 -0 -0 1 
1 1.0000001717798221 0 0.19999982822017937 -0.70710678118654702 -0 0.70710678118654824 
1 1.0000001717798221 0 0.19999982822017937 -0.70710678118654702 -0 0.70710678118654824 
Polygon3D 0
PolygonOnTriangulations 95
2 1 2 
p 0.00848528274854586 1 0 1.5 
2 1 4 
p 0.00848528274854586 1 0 1.5 
2 2 3 
p 0.00848528274854586 1 0 1 
2 1 2 
p 0.00848528274854586 1 0 1 
2 4 3 
p 0.00848528274854586 1 0 1.5 
2 1 4 
p 0.00848528274854586 1 0 1.5 
2 1 4 
p 0.00848528274854586 1 0 1 
2 1 2 
p 0.00848528274854586 1 0 1 
2 1 2 
p 0.00848528274854586 1 0 1.5 
2 2 3 
p 0.00848528274854586 1 0 1.5 
2 2 3 
p 0.00848528274854586 1 0 1 
2 4 3 
p 0.00848528274854586 1 0 1 
2 4 3 
p 0.00848528274854586 1 0 1.5 
2 2 3 
p 0.00848528274854586 1 0 1.5 
2 4 2 
p 0.130000038357682 1 0 1 
2 2 3 
p 0.126000042029219 1 0 1 
2 4 3 
p 0.126000042029219 1 0 1 
2 1 4 
p 0.00848528274854586 1 0 1 
2 4 3 
p 0.00848528274854586 1 0 1 
2 1 2 
p 0.00848528274854586 1 0 1.5 
2 1 4 
p 0.00848528274854586 1 0 1.5 
2 4 3 
p 0.00848528274854586 1 0 1.5 
2 1 4 
p 0.00848528274854586 1 0 1.5 
2 1 2 
p 0.00848528274854586 1 0 1.5 
2 2 3 
p 0.00848528274854586 1 0 1.5 
2 4 3 
p 0.00848528274854586 1 0 1.5 
2 2 3 
p 0.00848528274854586 1 0 1.5 
2 1 2 
p 0.00480000194346702 1 0 1.2 
2 3 4 
p 0.00480000194346702 1 0 1.2 
2 3 4 
p 0.00480000194346702 1 0 1.2 
2 1 2 
p 0.00480000194346702 1 0 1.2 
2 1 2 
p 0.00377024859386422 1 0 0.942561948466055 
2 1 3 
p 0.00400000194346702 1 0 0.942561948466055 
2 2 4 
p 0.00400000194346702 1 0 0.942561948466055 
2 1 3 
p 0.00480000194346702 1 0 0.942561948466055 
2 2 4 
p 0.00480000194346702 1 0 0.942561948466055 
2 2 4 
p 0.00480000194346702 1 0 0.942561948466055 
2 1 3 
p 0.00480000194346702 1 0 0.942561948466055 
2 1 3 
p 0.00480000194346702 1 0 0.942561948466055 
2 2 4 
p 0.00480000194346702 1 0 0.942561948466055 
2 3 4 
p 0.00480000194346702 1 0 1.2 
2 1 2 
p 0.00480000194346702 1 0 1.2 
2 2 3 
p 0.00377024859386422 1 0 0.742462120245874 
2 1 3 
p 0.00400000194346702 1 0 0.742462120245874 
2 2 4 
p 0.00400000194346702 1 0 0.742462120245874 
2 1 3 
p 0.00480000194346702 1 0 0.742462120245874 
2 2 4 
p 0.00480000194346702 1 0 0.742462120245874 
2 1 3 
p 0.00480000194346702 1 0 0.742462120245874 
2 2 4 
p 0.00480000194346702 1 0 0.742462120245874 
2 1 3 
p 0.00480000194346702 1 0 0.742462120245874 
2 2 4 
p 0.00480000194346702 1 0 0.742462120245874 
2 3 4 
p 0.00480000194346702 1 0 1.2 
2 1 2 
p 0.00480000194346702 1 0 1.2 
2 3 4 
p 0.00377024859386422 1 0 0.200099828220179 
2 1 3 
p 0.00400000194346702 1 0 0.200099828220179 
2 2 4 
p 0.00400000194346702 1 0 0.200099828220179 
2 2 4 
p 0.00480000194346702 1 0 0.200099828220179 
2 1 3 
p 0.00480000194346702 1 0 0.200099828220179 
2 1 3 
p 0.00480000194346702 1 0 0.200099828220179 
2 2 4 
p 0.00480000194346702 1 0 0.200099828220179 
2 1 3 
p 0.00480000194346702 1 0 0.200099828220179 
2 2 4 
p 0.00480000194346702 1 0 0.200099828220179 
2 4 1 
p 0.00377024859386422 1 0 1.05 
2 1 3 
p 0.00400000194346702 1 0 1.05 
2 2 4 
p 0.00400000194346702 1 0 1.05 
2 1 3 
p 0.00480000194346702 1 0 1.05 
2 2 4 
p 0.00480000194346702 1 0 1.05 
2 2 4 
p 0.00480000194346702 1 0 1.05 
2 1 3 
p 0.00480000194346702 1 0 1.05 
2 1 3 
p 0.00480000194346702 1 0 1.05 
2 2 4 
p 0.00480000194346702 1 0 1.05 
2 1 2 
p 0.00480000194346702 1 0 1.2 
2 3 4 
p 0.00480000194346702 1 0 1.2 
2 3 4 
p 0.00480000194346702 1 0 1.2 
2 1 2 
p 0.00480000194346702 1 0 1.2 
2 1 3 
p 0.00480000194346702 1 0 0.942561948466055 
2 1 2 
p 0.00480000194346702 1 0 0.942561948466055 
2 2 4 
p 0.00480000194346702 1 0 0.942561948466055 
2 1 2 
p 0.00480000194346702 1 0 0.942561948466055 
2 3 4 
p 0.00480000194346702 1 0 1.2 
2 1 2 
p 0.00480000194346702 1 0 1.2 
2 1 3 
p 0.00480000194346702 1 0 0.742462120245874 
2 2 3 
p 0.00480000194346702 1 0 0.742462120245874 
2 2 4 
p 0.00480000194346702 1 0 0.742462120245874 
2 2 3 
p 0.00480000194346702 1 0 0.742462120245874 
2 3 4 
p 0.00480000194346702 1 0 1.2 
2 1 2 
p 0.00480000194346702 1 0 1.2 
2 1 3 
p 0.00480000194346702 1 0 0.200099828220179 
2 3 4 
p 0.00480000194346702 1 0 0.200099828220179 
2 2 4 
p 0.00480000194346702 1 0 0.200099828220179 
2 3 4 
p 0.00480000194346702 1 0 0.200099828220179 
2 1 3 
p 0.00480000194346702 1 0 1.05 
2 4 1 
p 0.00480000194346702 1 0 1.05 
2 2 4 
p 0.00480000194346702 1 0 1.05 
2 4 1 
p 0.00480000194346702 1 0 1.05 
Surfaces 17
1 0 0 0 1 0 -0 0 0 1 0 -1 0 
1 0 0 0 -0 1 0 0 0 1 1 0 -0 
1 0 0 1.5 0 0 1 1 0 -0 -0 1 0 
1 0 1 0 -0 1 0 0 0 1 1 0 -0 
1 0 0 0 0 0 1 1 0 -0 -0 1 0 
1 1.5 0 0 1 0 -0 0 0 1 0 -1 0 
1 1.7424622920256962 -0.10000000000000001 0.94246194846605469 -1 0 0 0 0 -1 -0 -1 -0 
1 1.7424622920256962 -0.10000000000000001 -9.9999999999988987e-05 0 -0 1 -1 0 0 -0 -1 0 
1 1.0000001717798221 -0.10000000000000001 -9.9999999999988987e-05 1 0 0 0 0 1 0 -1 0 
1 1.0000001717798221 -0.10000000000000001 0.19999982822017937 0.70710678118654824 0 -0.70710678118654702 0.70710678118654702 0 0.70710678118654824 0 -1 0 
1 1.4651369781944548 0 0.36244991411008992 0 1 0 0 -0 1 1 0 -0 
1 0.25753805153394804 -0.10000000000000001 0.94246194846605469 1 -0 -0 -0 -0 -1 0 -1 -0 
1 0.25753805153394804 -0.10000000000000001 -9.9999999999988987e-05 -0 -0 1 1 -0 -0 -0 -1 0 
1 1.0000001717798221 -0.10000000000000001 -9.9999999999988987e-05 -1 -0 -0 -0 -0 1 -0 -1 -0 
1 1.0000001717798221 -0.10000000000000001 0.19999982822017937 -0.70710678118654824 -0 -0.70710678118654702 -0.70710678118654702 -0 0.70710678118654824 -0 -1 -0 
1 0.53486336536518952 0 0.36244991411008992 -0 1 -0 -0 -0 1 -1 -0 -0 
1 0.53486336536518952 0 0.36244991411008992 -0 1 -0 -0 -0 1 -1 -0 -0 
Triangulations 32
4 2 1 1.11022302462516e-16
0 0 0 0 0 1.5 0 1 1.5 0 1 0 0 0 1.5 0 1.5 -1 0 -1 2 4 3 2 1 4 
4 2 1 1.11022302462516e-16
0 0 0 1.5 0 1.11022302462516e-16 1.5 0 1.5 0 0 1.5 0 0 0 1.5 1.5 1.5 1.5 0 3 2 1 3 1 4 
4 2 1 1.66533453693773e-16
0 0 1.5 0 1 1.5 1.5 1 1.5 1.5 0 1.5 0 0 0 1 1.5 1 1.5 0 3 2 1 3 1 4 
4 2 1 1.11022302462516e-16
0 1 0 1.5 1 1.11022302462516e-16 1.5 1 1.5 0 1 1.5 0 0 0 1.5 1.5 1.5 1.5 0 3 2 1 3 1 4 
4 2 1 5.55111512312578e-17
0 0 0 0 1 0 1.5 1 1.11022302462516e-16 1.5 0 1.11022302462516e-16 0 0 0 1 1.5 1 1.5 0 3 2 1 3 1 4 
4 2 1 5.55111512312578e-17
1.5 0 1.11022302462516e-16 1.5 0 1.5 1.5 1 1.5 1.5 1 1.11022302462516e-16 0 0 1.5 0 1.5 -1 0 -1 2 4 3 2 1 4 
4 2 1 1.14519880985574e-07
1 1 0 1.00000017177982 1 0.199999828220179 1 0 0 1.00000017177982 0 0.199999828220179 0 -1 0.199999828220179 -1 0 0 0.199999828220179 0 3 1 2 4 3 2 
4 2 1 1.14519880985574e-07
1 0 0 1.00000017177982 0 0.199999828220179 1.00000017177982 1 0.199999828220179 1 1 0 0 0 0.199999828220179 0 0.199999828220179 -1 0 -1 1 4 3 2 1 3 
4 2 1 9.58677581763823e-14
0.200000000000305 0 0.999999999999898 0.200000000000305 1 0.999999999999898 1.00000017177982 1 0.199999828220179 1.00000017177982 0 0.199999828220179 0.368628907168171 0 0.368628907168171 1 1.5 1 1.5 0 3 2 1 3 1 4 
4 2 1 1.11022302462516e-16
1.7424622920257 -0.1 0.942461948466055 1.7424622920257 1.1 0.942461948466055 1.7424622920257 -0.1 -9.9999999999989e-05 1.7424622920257 1.1 -9.9999999999989e-05 0 0 0 -1.2 0.942561948466055 0 0.942561948466055 -1.2 3 1 2 3 2 4 
4 2 1 2.78940082729686e-16
1.00000017177982 -0.1 0.199999828220179 1.00000017177982 1.1 0.199999828220179 1.7424622920257 -0.1 0.942461948466055 1.7424622920257 1.1 0.942461948466055 0 0 0 -1.2 1.05 0 1.05 -1.2 3 1 2 3 2 4 
4 2 1 1.66533453693773e-16
1.7424622920257 -0.1 -9.9999999999989e-05 1.7424622920257 1.1 -9.9999999999989e-05 1.00000017177982 -0.1 -9.9999999999989e-05 1.00000017177982 1.1 -9.9999999999989e-05 0 0 0 -1.2 0.742462120245874 0 0.742462120245874 -1.2 3 1 2 3 2 4 
4 2 1 2.77555756156289e-17
1.7424622920257 0 0.942461948466055 1.7424622920257 0 -9.9999999999989e-05 1.00000017177982 0 -9.9999999999989e-05 1.00000017177982 0 0.199999828220179 0.580012034355965 0.277325313831241 -0.36254991411009 0.277325313831241 -0.36254991411009 -0.465136806414633 -0.162450085889911 -0.465136806414633 2 3 4 1 2 4 
4 2 1 5.55111512312578e-17
1.7424622920257 -0.1 0.942461948466055 1.7424622920257 0.9 0.942461948466055 1.7424622920257 -0.1 -9.9999999999989e-05 1.7424622920257 0.9 -9.9999999999989e-05 0 0 0 -1 0.942561948466055 0 0.942561948466055 -1 3 1 2 3 2 4 
4 2 1 1.11022302462516e-16
1.7424622920257 -0.1 0.942461948466055 1.7424622920257 1.1 0.942461948466055 1.7424622920257 -0.1 -9.9999999999989e-05 1.7424622920257 1.1 -9.9999999999989e-05 0 0 0 -1.2 0.942561948466055 0 0.942561948466055 -1.2 3 1 2 3 2 4 
4 2 1 1.11022302462516e-16
1.7424622920257 -0.1 0.942461948466055 1.7424622920257 1.1 0.942461948466055 1.7424622920257 -0.1 -9.9999999999989e-05 1.7424622920257 1.1 -9.9999999999989e-05 0 0 0 -1.2 0.942561948466055 0 0.942561948466055 -1.2 3 1 2 3 2 4 
4 2 1 1.38777878078145e-17
1.00000017177982 -0.1 -9.9999999999989e-05 1.00000017177982 1.1 -9.9999999999989e-05 1.00000017177982 -0.1 0.199999828220179 1.00000017177982 1.1 0.199999828220179 0 0 0 -1.2 0.200099828220179 0 0.200099828220179 -1.2 3 1 2 3 2 4 
4 2 1 5.55111512312578e-17
1.7424622920257 -0.1 -9.9999999999989e-05 1.7424622920257 0.9 -9.9999999999989e-05 1.00000017177982 -0.1 -9.9999999999989e-05 1.00000017177982 0.9 -9.9999999999989e-05 0 0 0 -1 0.742462120245874 0 0.742462120245874 -1 3 1 2 3 2 4 
4 2 1 1.66533453693773e-16
1.7424622920257 -0.1 -9.9999999999989e-05 1.7424622920257 1.1 -9.9999999999989e-05 1.00000017177982 -0.1 -9.9999999999989e-05 1.00000017177982 1.1 -9.9999999999989e-05 0 0 0 -1.2 0.742462120245874 0 0.742462120245874 -1.2 3 1 2 3 2 4 
4 2 1 1.66533453693773e-16
1.7424622920257 -0.1 -9.9999999999989e-05 1.7424622920257 1.1 -9.9999999999989e-05 1.00000017177982 -0.1 -9.9999999999989e-05 1.00000017177982 1.1 -9.9999999999989e-05 0 0 0 -1.2 0.742462120245874 0 0.742462120245874 -1.2 3 1 2 3 2 4 
4 2 1 0
1.00000017177982 -0.1 -9.9999999999989e-05 1.00000017177982 0.9 -9.9999999999989e-05 1.00000017177982 -0.1 0.199999828220179 1.00000017177982 0.9 0.199999828220179 0 0 0 -1 0.200099828220179 0 0.200099828220179 -1 3 1 2 3 2 4 
4 2 1 1.38777878078145e-17
1.00000017177982 -0.1 -9.9999999999989e-05 1.00000017177982 1.1 -9.9999999999989e-05 1.00000017177982 -0.1 0.199999828220179 1.00000017177982 1.1 0.199999828220179 0 0 0 -1.2 0.200099828220179 0 0.200099828220179 -1.2 3 1 2 3 2 4 
4 2 1 1.38777878078145e-17
1.00000017177982 -0.1 -9.9999999999989e-05 1.00000017177982 1.1 -9.9999999999989e-05 1.00000017177982 -0.1 0.199999828220179 1.00000017177982 1.1 0.199999828220179 0 0 0 -1.2 0.200099828220179 0 0.200099828220179 -1.2 3 1 2 3 2 4 
4 2 1 1.84109660314757e-16
1.00000017177982 -0.1 0.199999828220179 1.00000017177982 0.9 0.199999828220179 1.7424622920257 -0.1 0.942461948466055 1.7424622920257 0.9 0.942461948466055 0 0 0 -1 1.05 0 1.05 -1 3 1 2 3 2 4 
4 2 1 2.78940082729686e-16
1.00000017177982 -0.1 0.199999828220179 1.00000017177982 1.1 0.199999828220179 1.7424622920257 -0.1 0.942461948466055 1.7424622920257 1.1 0.942461948466055 0 0 0 -1.2 1.05 0 1.05 -1.2 3 1 2 3 2 4 
4 2 1 2.78940082729686e-16
1.00000017177982 -0.1 0.199999828220179 1.00000017177982 1.1 0.199999828220179 1.7424622920257 -0.1 0.942461948466055 1.7424622920257 1.1 0.942461948466055 0 0 0 -1.2 1.05 0 1.05 -1.2 3 1 2 3 2 4 
4 2 1 1.11022302462516e-16
0.257538051533948 -0.1 0.942461948466055 0.257538051533948 1.1 0.942461948466055 0.257538051533948 -0.1 -9.9999999999989e-05 0.257538051533948 1.1 -9.9999999999989e-05 0 0 0 -1.2 0.942561948466055 0 0.942561948466055 -1.2 3 1 2 3 2 4 
4 2 1 2.78940082729686e-16
1.00000017177982 -0.1 0.199999828220179 1.00000017177982 1.1 0.199999828220179 0.257538051533948 -0.1 0.942461948466055 0.257538051533948 1.1 0.942461948466055 0 0 0 -1.2 1.05 0 1.05 -1.2 3 1 2 3 2 4 
4 2 1 1.11022302462516e-16
0.257538051533948 -0.1 -9.9999999999989e-05 0.257538051533948 1.1 -9.9999999999989e-05 1.00000017177982 -0.1 -9.9999999999989e-05 1.00000017177982 1.1 -9.9999999999989e-05 0 0 0 -1.2 0.742462120245874 0 0.742462120245874 -1.2 3 1 2 3 2 4 
4 2 1 0
0.257538051533948 0 0.942461948466055 0.257538051533948 0 -9.9999999999989e-05 1.00000017177982 0 -9.9999999999989e-05 1.00000017177982 0 0.199999828220179 0.580012034355965 0.277325313831241 -0.36254991411009 0.277325313831241 -0.36254991411009 -0.465136806414633 -0.162450085889911 -0.465136806414633 2 3 4 1 2 4 
4 2 1 0
0.257538051533948 0 0.942461948466055 0.257538051533948 0 -9.9999999999989e-05 1.00000017177982 0 -9.9999999999989e-05 1.00000017177982 0 0.199999828220179 0.580012034355965 0.277325313831241 -0.36254991411009 0.277325313831241 -0.36254991411009 -0.465136806414633 -0.162450085889911 -0.465136806414633 2 3 4 1 2 4 
4 2 1 1.38777878078145e-17
1.00000017177982 -0.1 -9.9999999999989e-05 1.00000017177982 1.1 -9.9999999999989e-05 1.00000017177982 -0.1 0.199999828220179 1.00000017177982 1.1 0.199999828220179 0 0 0 -1.2 0.200099828220179 0 0.200099828220179 -1.2 3 1 2 3 2 4 

TShapes 93
Ve
1e-07
0 0 1.5
0 0

0101101
*
Ve
1e-07
0 0 0
0 0

0101101
*
Ed
 1e-07 1 1 0
1  1 0 0 1.5
2  1 1 0 0 1.5
2  2 2 0 0 1.5
6  1 1 0
6  2 2 0
0

0101000
-93 0 +92 0 *
Ve
1e-07
0 1 1.5
0 0

0101101
*
Ed
 1e-07 1 1 0
1  2 0 0 1
2  3 1 0 0 1
2  4 3 0 0 1
6  3 1 0
6  4 3 0
0

0101000
-90 0 +93 0 *
Ve
1e-07
0 1 0
0 0

0101101
*
Ed
 1e-07 1 1 0
1  3 0 0 1.5
2  5 1 0 0 1.5
2  6 4 0 0 1.5
6  5 1 0
6  6 4 0
0

0101000
-90 0 +88 0 *
Ed
 1e-07 1 1 0
1  4 0 0 1
2  7 1 0 0 1
2  8 5 0 0 1
6  7 1 0
6  8 5 0
0

0101000
-88 0 +92 0 *
Wi

0101000
-91 0 -89 0 +87 0 +86 0 *
Fa
0  1e-07 1 0
2  1
0111000
+85 0 *
Ve
1e-07
1.5 0 1.5
0 0

0101101
*
Ve
2.42933377570151e-07
1.5 0 0
0 0

0101101
*
Ed
 1e-07 1 1 0
1  5 0 0 1.5
2  9 6 0 0 1.5
2  10 2 0 0 1.5
6  9 6 0
6  10 2 0
0

0101000
-83 0 +82 0 *
Ve
1e-07
1.5 1 1.5
0 0

0101101
*
Ed
 1e-07 1 1 0
1  6 0 0 1
2  11 6 0 0 1
2  12 3 0 0 1
6  11 6 0
6  12 3 0
0

0101000
-80 0 +83 0 *
Ve
2.42933377570151e-07
1.5 1 0
0 0

0101101
*
Ed
 1e-07 1 1 0
1  7 0 0 1.5
2  13 6 0 0 1.5
2  14 4 0 0 1.5
6  13 6 0
6  14 4 0
0

0101000
-80 0 +78 0 *
Ed
 1.71788410469498e-07 1 1 0
1  8 0 0 1
2  15 6 0 0 1
2  16 5 0 0 1
6  15 7 2
6  16 8 2
6  17 9 2
6  18 6 0
6  19 5 0
0

0101000
-78 0 +82 0 *
Wi

0101000
-81 0 -79 0 +77 0 +76 0 *
Fa
0  1e-07 6 0
2  6
0111000
+75 0 *
Ed
 1e-07 1 1 0
1  9 0 0 1.5
2  17 2 0 0 1.5
2  18 5 0 0 1.5
6  20 2 0
6  21 5 0
0

0101000
-82 0 +92 0 *
Ed
 1e-07 1 1 0
1  10 0 0 1.5
2  19 2 0 0 1.5
2  20 3 0 0 1.5
6  22 2 0
6  23 3 0
0

0101000
-83 0 +93 0 *
Wi

0101000
-73 0 -81 0 +72 0 +91 0 *
Fa
0  1e-07 2 0
2  2
0111000
+71 0 *
Ed
 1e-07 1 1 0
1  11 0 0 1.5
2  21 4 0 0 1.5
2  22 5 0 0 1.5
6  24 4 0
6  25 5 0
0

0101000
-78 0 +88 0 *
Ed
 1e-07 1 1 0
1  12 0 0 1.5
2  23 4 0 0 1.5
2  24 3 0 0 1.5
6  26 4 0
6  27 3 0
0

0101000
-80 0 +90 0 *
Wi

0101000
-69 0 -77 0 +68 0 +87 0 *
Fa
0  1e-07 4 0
2  4
0111000
+67 0 *
Wi

0101000
-86 0 -69 0 +76 0 +73 0 *
Fa
0  1e-07 5 0
2  5
0111000
+65 0 *
Wi

0101000
-89 0 -68 0 +79 0 +72 0 *
Fa
0  1e-07 3 0
2  3
0111000
+63 0 *
Sh

0101100
-84 0 +74 0 -70 0 +66 0 -64 0 +62 0 *
So

0100000
+61 0 *
Ve
1e-07
1.7424622920257 0 0.942461948466055
0 0

0101101
*
Ed
 1e-07 1 1 0
1  13 0 0 1.2
6  28 10 0
6  29 11 0
0

0101000
+59 3 -59 5 *
Ve
1e-07
1.7424622920257 0 -9.9999999999989e-05
0 0

0101101
*
Ed
 1e-07 1 1 0
1  14 0 0 1.2
6  30 10 0
6  31 12 0
0

0101000
+57 3 -57 5 *
Ed
 1e-07 1 1 0
1  15 0 0 0.942561948466055
6  32 13 0
6  33 14 6
6  34 14 8
6  35 15 6
6  36 15 10
6  37 10 11
6  38 10 6
6  39 16 6
6  40 16 13
0

0101000
+59 0 -57 0 *
Wi

0101100
+58 0 -56 0 -55 3 +55 5 *
Fa
0  1e-07 7 0
2  10
0111000
+54 0 *
Ve
1e-07
1.00000017177982 0 -9.9999999999989e-05
0 0

0101101
*
Ed
 1e-07 1 1 0
1  16 0 0 1.2
6  41 12 0
6  42 17 0
0

0101000
+52 3 -52 5 *
Ed
 1e-07 1 1 0
1  17 0 0 0.742462120245874
6  43 13 0
6  44 18 6
6  45 18 8
6  46 19 6
6  47 19 10
6  48 12 6
6  49 12 11
6  50 20 6
6  51 20 13
0

0101000
+57 0 -52 0 *
Wi

0101100
+56 0 -51 0 -50 3 +50 5 *
Fa
0  1e-07 8 0
2  12
0111000
+49 0 *
Ve
2.42933377570151e-07
1.5 0 0
0 0

0101101
*
Ed
 2.42933377570151e-07 1 1 0
1  18 0 0 1.2
6  52 17 0
6  53 11 0
0

0101000
+47 15 -47 16 *
Ed
 1e-07 1 1 0
1  19 0 0 0.200099828220179
6  54 13 0
6  55 21 6
6  56 21 8
6  57 22 10
6  58 22 6
6  59 17 6
6  60 17 11
6  61 23 6
6  62 23 13
0

0101000
+52 0 -47 14 *
Wi

0101100
+51 0 -46 0 -45 3 +45 5 *
Fa
0  1e-07 9 0
2  17
0111000
+44 0 *
Ed
 1e-07 1 1 0
1  20 0 0 1.05
6  63 13 0
6  64 24 6
6  65 24 8
6  66 25 6
6  67 25 10
6  68 11 11
6  69 11 6
6  70 26 6
6  71 26 13
0

0101000
+47 14 -59 0 *
Wi

0101100
+46 0 -58 0 -42 3 +42 5 *
Fa
0  1e-07 10 0
2  11
0111000
+41 0 *
Wi

0101100
+55 0 +50 0 +45 0 +42 0 *
Fa
0  1e-07 11 0
2  13
0111000
+39 0 *
Sh

0101100
+53 0 +48 0 +43 0 +40 0 +38 3 -38 5 *
So

0100000
-37 0 *
Ve
1e-07
0.257538051533948 -0.1 0.942461948466055
0 0

0101101
*
Ve
1e-07
0.257538051533948 1.1 0.942461948466055
0 0

0101101
*
Ed
 1e-07 1 1 0
1  21 0 0 1.2
6  72 27 0
6  73 28 0
0

0101000
+35 0 -34 0 *
Ve
1e-07
0.257538051533948 -0.1 -9.9999999999989e-05
0 0

0101101
*
Ve
1e-07
0.257538051533948 1.1 -9.9999999999989e-05
0 0

0101101
*
Ed
 1e-07 1 1 0
1  22 0 0 1.2
6  74 27 0
6  75 29 0
0

0101000
+32 0 -31 0 *
Ed
 1e-07 1 1 0
1  23 0 0 0.942561948466055
6  76 27 6
6  77 30 0
0

0101000
+35 6 -32 6 *
Ed
 1e-07 1 1 0
1  24 0 0 0.942561948466055
6  78 27 11
6  79 31 0
0

0101000
+34 11 -31 11 *
Wi

0101100
+33 0 -30 0 -29 3 +28 5 *
Fa
0  1e-07 12 0
2  27
0111000
+27 0 *
Ve
1e-07
1.00000017177982 -0.1 -9.9999999999989e-05
0 0

0101101
*
Ve
1e-07
1.00000017177982 1.1 -9.9999999999989e-05
0 0

0101101
*
Ed
 1e-07 1 1 0
1  25 0 0 1.2
6  80 29 0
6  81 32 0
0

0101000
+25 0 -24 0 *
Ed
 1e-07 1 1 0
1  26 0 0 0.742462120245874
6  82 29 6
6  83 30 0
0

0101000
+32 6 -25 6 *
Ed
 1e-07 1 1 0
1  27 0 0 0.742462120245874
6  84 29 11
6  85 31 0
0

0101000
+31 11 -24 11 *
Wi

0101100
+30 0 -23 0 -22 3 +21 5 *
Fa
0  1e-07 13 0
2  29
0111000
+20 0 *
Ve
2.42933377570151e-07
1.00000017177982 -0.1 0.199999828220179
0 0

0101101
*
Ve
2.42933377570151e-07
1.00000017177982 1.1 0.199999828220179
0 0

0101101
*
Ed
 2.42933377570151e-07 1 1 0
1  28 0 0 1.2
6  86 32 0
6  87 28 0
0

0101000
+18 0 -17 0 *
Ed
 1e-07 1 1 0
1  29 0 0 0.200099828220179
6  88 32 6
6  89 30 0
0

0101000
+25 6 -18 6 *
Ed
 1e-07 1 1 0
1  30 0 0 0.200099828220179
6  90 32 11
6  91 31 0
0

0101000
+24 11 -17 11 *
Wi

0101100
+23 0 -16 0 -15 3 +14 5 *
Fa
0  1e-07 14 0
2  32
0111000
+13 0 *
Ed
 1e-07 1 1 0
1  31 0 0 1.05
6  92 28 6
6  93 30 0
0

0101000
+18 6 -35 6 *
Ed
 1e-07 1 1 0
1  32 0 0 1.05
6  94 28 11
6  95 31 0
0

0101000
+17 11 -34 11 *
Wi

0101100
+16 0 -33 0 -11 3 +10 5 *
Fa
0  1e-07 15 0
2  28
0111000
+9 0 *
Wi

0101100
+29 0 +22 0 +15 0 +11 0 *
Fa
0  1e-07 16 0
2  30
0111000
+7 0 *
Wi

0101100
+28 0 +21 0 +14 0 +10 0 *
Fa
0  1e-07 17 0
2  31
0111000
+5 0 *
Sh

0101100
-26 0 -19 0 -12 0 -8 0 -6 3 +4 5 *
So

0100000
-3 0 *
Co

1100000
+60 1 +36 0 +2 0 *

+1 0 